solid OpenSCAD_Model
  facet normal 1 0 0
    outer loop
      vertex 19 19 0
      vertex 19 25 0
      vertex 19 25 16
    endloop
  endfacet
  facet normal 1 0 0
    outer loop
      vertex 19 25 0
      vertex 19 22.8817 -1.78648
      vertex 19 23.4266 -2.53648
    endloop
  endfacet
  facet normal 1 0 0
    outer loop
      vertex 19 25 0
      vertex 19 22 -1.5
      vertex 19 22.8817 -1.78648
    endloop
  endfacet
  facet normal 1 0 0
    outer loop
      vertex 19 25 0
      vertex 19 19 0
      vertex 19 22 -1.5
    endloop
  endfacet
  facet normal 1 0 0
    outer loop
      vertex 19 22 -1.5
      vertex 19 19 0
      vertex 19 21.1183 -1.78648
    endloop
  endfacet
  facet normal 1 0 0
    outer loop
      vertex 19 21.1183 -1.78648
      vertex 19 19 0
      vertex 19 20.5734 -2.53648
    endloop
  endfacet
  facet normal 1 0 0
    outer loop
      vertex 19 19 0
      vertex 19 25 16
      vertex 19 19 16
    endloop
  endfacet
  facet normal 1 -0 0
    outer loop
      vertex 19 25 0
      vertex 19 43 -6
      vertex 19 43 0
    endloop
  endfacet
  facet normal 1 0 0
    outer loop
      vertex 19 23.4266 -3.46353
      vertex 19 25 0
      vertex 19 23.4266 -2.53648
    endloop
  endfacet
  facet normal 1 0 0
    outer loop
      vertex 19 25 0
      vertex 19 23.4266 -3.46353
      vertex 19 43 -6
    endloop
  endfacet
  facet normal 1 -0 0
    outer loop
      vertex 19 22.8817 -4.21353
      vertex 19 43 -6
      vertex 19 23.4266 -3.46353
    endloop
  endfacet
  facet normal 1 -0 0
    outer loop
      vertex 19 22 -4.5
      vertex 19 43 -6
      vertex 19 22.8817 -4.21353
    endloop
  endfacet
  facet normal 1 0 0
    outer loop
      vertex 19 20.5734 -2.53648
      vertex 19 19 0
      vertex 19 20.5734 -3.46353
    endloop
  endfacet
  facet normal 1 0 0
    outer loop
      vertex 19 3 -6
      vertex 19 19 0
      vertex 19 3 0
    endloop
  endfacet
  facet normal 1 0 0
    outer loop
      vertex 19 19 0
      vertex 19 3 -6
      vertex 19 20.5734 -3.46353
    endloop
  endfacet
  facet normal 1 0 0
    outer loop
      vertex 19 20.5734 -3.46353
      vertex 19 3 -6
      vertex 19 21.1183 -4.21353
    endloop
  endfacet
  facet normal 1 0 0
    outer loop
      vertex 19 22 -4.5
      vertex 19 3 -6
      vertex 19 43 -6
    endloop
  endfacet
  facet normal 1 0 0
    outer loop
      vertex 19 21.1183 -4.21353
      vertex 19 3 -6
      vertex 19 22 -4.5
    endloop
  endfacet
  facet normal 0 0 1
    outer loop
      vertex 19 43 0
      vertex 15 39 0
      vertex 19 25 0
    endloop
  endfacet
  facet normal 0 0 1
    outer loop
      vertex 19 43 0
      vertex -15 39 0
      vertex 15 39 0
    endloop
  endfacet
  facet normal -0 0 1
    outer loop
      vertex -19 43 0
      vertex -15 39 0
      vertex 19 43 0
    endloop
  endfacet
  facet normal 0 0 1
    outer loop
      vertex -19 3 0
      vertex -15 39 0
      vertex -19 43 0
    endloop
  endfacet
  facet normal 0 0 1
    outer loop
      vertex -15 39 0
      vertex -19 3 0
      vertex -15 3 0
    endloop
  endfacet
  facet normal 0 0 1
    outer loop
      vertex 19 25 0
      vertex 15 39 0
      vertex 15 25 0
    endloop
  endfacet
  facet normal -0 0 1
    outer loop
      vertex 15 19 0
      vertex 19 3 0
      vertex 19 19 0
    endloop
  endfacet
  facet normal 0 0 1
    outer loop
      vertex 19 3 0
      vertex 15 19 0
      vertex 15 3 0
    endloop
  endfacet
  facet normal 0 0 -1
    outer loop
      vertex -9.26393 26.0542 -6
      vertex -4.75 27 -6
      vertex -7.26393 24.6011 -6
    endloop
  endfacet
  facet normal 0 0 -1
    outer loop
      vertex -4.75 27 -6
      vertex -7.26393 32.8989 -6
      vertex -6.5 35.25 -6
    endloop
  endfacet
  facet normal 0 0 -1
    outer loop
      vertex -9.26393 31.4458 -6
      vertex -4.75 27 -6
      vertex -9.26393 26.0542 -6
    endloop
  endfacet
  facet normal 0 0 -1
    outer loop
      vertex -4.75 27 -6
      vertex -9.26393 31.4458 -6
      vertex -7.26393 32.8989 -6
    endloop
  endfacet
  facet normal 0 0 -1
    outer loop
      vertex -11.7361 26.0542 -6
      vertex -9.26393 31.4458 -6
      vertex -9.26393 26.0542 -6
    endloop
  endfacet
  facet normal 0 0 -1
    outer loop
      vertex -11.7361 26.0542 -6
      vertex -11.7361 31.4458 -6
      vertex -9.26393 31.4458 -6
    endloop
  endfacet
  facet normal 0 0 -1
    outer loop
      vertex -13.7361 24.6011 -6
      vertex -11.7361 31.4458 -6
      vertex -11.7361 26.0542 -6
    endloop
  endfacet
  facet normal 0 0 -1
    outer loop
      vertex -13.7361 24.6011 -6
      vertex -13.7361 32.8989 -6
      vertex -11.7361 31.4458 -6
    endloop
  endfacet
  facet normal 0 0 -1
    outer loop
      vertex -14.5 22.25 -6
      vertex -13.7361 32.8989 -6
      vertex -13.7361 24.6011 -6
    endloop
  endfacet
  facet normal -0 0 -1
    outer loop
      vertex -13.7361 32.8989 -6
      vertex -14.5 22.25 -6
      vertex -14.5 35.25 -6
    endloop
  endfacet
  facet normal 0 0 -1
    outer loop
      vertex 13.7361 24.6011 -6
      vertex 14.5 35.25 -6
      vertex 14.5 22.25 -6
    endloop
  endfacet
  facet normal 0 0 -1
    outer loop
      vertex 13.7361 24.6011 -6
      vertex 13.7361 32.8989 -6
      vertex 14.5 35.25 -6
    endloop
  endfacet
  facet normal 0 0 -1
    outer loop
      vertex 11.7361 26.0542 -6
      vertex 13.7361 32.8989 -6
      vertex 13.7361 24.6011 -6
    endloop
  endfacet
  facet normal 0 0 -1
    outer loop
      vertex 11.7361 26.0542 -6
      vertex 11.7361 31.4458 -6
      vertex 13.7361 32.8989 -6
    endloop
  endfacet
  facet normal 0 0 -1
    outer loop
      vertex 9.26393 26.0542 -6
      vertex 11.7361 31.4458 -6
      vertex 11.7361 26.0542 -6
    endloop
  endfacet
  facet normal 0 0 -1
    outer loop
      vertex 9.26393 26.0542 -6
      vertex 9.26393 31.4458 -6
      vertex 11.7361 31.4458 -6
    endloop
  endfacet
  facet normal 0 0 -1
    outer loop
      vertex 4.75 27 -6
      vertex 9.26393 26.0542 -6
      vertex 7.26393 24.6011 -6
    endloop
  endfacet
  facet normal 0 0 -1
    outer loop
      vertex 9.26393 26.0542 -6
      vertex 4.75 27 -6
      vertex 9.26393 31.4458 -6
    endloop
  endfacet
  facet normal 0 0 -1
    outer loop
      vertex 4.75 27 -6
      vertex 7.26393 24.6011 -6
      vertex 6.5 22.25 -6
    endloop
  endfacet
  facet normal -0 0 -1
    outer loop
      vertex 9.26393 31.4458 -6
      vertex 4.75 27 -6
      vertex 7.26393 32.8989 -6
    endloop
  endfacet
  facet normal 0 0 -1
    outer loop
      vertex 19 3 -6
      vertex 14.5 22.25 -6
      vertex 19 43 -6
    endloop
  endfacet
  facet normal 0 0 -1
    outer loop
      vertex 19 3 -6
      vertex 13.7361 19.8989 -6
      vertex 14.5 22.25 -6
    endloop
  endfacet
  facet normal 0 0 -1
    outer loop
      vertex 19 3 -6
      vertex 11.7361 18.4458 -6
      vertex 13.7361 19.8989 -6
    endloop
  endfacet
  facet normal 0 0 -1
    outer loop
      vertex 19 3 -6
      vertex 9.26393 18.4458 -6
      vertex 11.7361 18.4458 -6
    endloop
  endfacet
  facet normal 0 0 -1
    outer loop
      vertex 4.75 17.5 -6
      vertex 9.26393 18.4458 -6
      vertex 19 3 -6
    endloop
  endfacet
  facet normal 0 0 -1
    outer loop
      vertex 4.75 27 -6
      vertex 6.5 22.25 -6
      vertex 4.75 17.5 -6
    endloop
  endfacet
  facet normal -0 0 -1
    outer loop
      vertex 7.26393 19.8989 -6
      vertex 4.75 17.5 -6
      vertex 6.5 22.25 -6
    endloop
  endfacet
  facet normal -0 0 -1
    outer loop
      vertex 9.26393 18.4458 -6
      vertex 4.75 17.5 -6
      vertex 7.26393 19.8989 -6
    endloop
  endfacet
  facet normal 0 0 -1
    outer loop
      vertex 19 3 -6
      vertex -4.75 17.5 -6
      vertex 4.75 17.5 -6
    endloop
  endfacet
  facet normal 0 0 -1
    outer loop
      vertex -4.75 17.5 -6
      vertex -6.5 22.25 -6
      vertex -4.75 27 -6
    endloop
  endfacet
  facet normal 0 0 -1
    outer loop
      vertex -4.75 17.5 -6
      vertex -7.26393 19.8989 -6
      vertex -6.5 22.25 -6
    endloop
  endfacet
  facet normal 0 0 -1
    outer loop
      vertex -4.75 17.5 -6
      vertex -9.26393 18.4458 -6
      vertex -7.26393 19.8989 -6
    endloop
  endfacet
  facet normal 0 0 -1
    outer loop
      vertex -19 3 -6
      vertex -4.75 17.5 -6
      vertex 19 3 -6
    endloop
  endfacet
  facet normal -0 0 -1
    outer loop
      vertex -4.75 17.5 -6
      vertex -19 3 -6
      vertex -9.26393 18.4458 -6
    endloop
  endfacet
  facet normal 0 0 -1
    outer loop
      vertex -19 43 -6
      vertex -14.5 22.25 -6
      vertex -19 3 -6
    endloop
  endfacet
  facet normal -0 0 -1
    outer loop
      vertex -13.7361 19.8989 -6
      vertex -19 3 -6
      vertex -14.5 22.25 -6
    endloop
  endfacet
  facet normal -0 0 -1
    outer loop
      vertex -11.7361 18.4458 -6
      vertex -19 3 -6
      vertex -13.7361 19.8989 -6
    endloop
  endfacet
  facet normal -0 0 -1
    outer loop
      vertex -9.26393 18.4458 -6
      vertex -19 3 -6
      vertex -11.7361 18.4458 -6
    endloop
  endfacet
  facet normal 0 0 -1
    outer loop
      vertex 14.5 35.25 -6
      vertex 19 43 -6
      vertex 14.5 22.25 -6
    endloop
  endfacet
  facet normal 0 0 -1
    outer loop
      vertex 13.7361 37.6011 -6
      vertex 19 43 -6
      vertex 14.5 35.25 -6
    endloop
  endfacet
  facet normal 0 0 -1
    outer loop
      vertex 11.7361 39.0542 -6
      vertex 19 43 -6
      vertex 13.7361 37.6011 -6
    endloop
  endfacet
  facet normal 0 0 -1
    outer loop
      vertex 9.26393 39.0542 -6
      vertex 19 43 -6
      vertex 11.7361 39.0542 -6
    endloop
  endfacet
  facet normal -0 0 -1
    outer loop
      vertex 7.26393 32.8989 -6
      vertex 4.75 27 -6
      vertex 6.5 35.25 -6
    endloop
  endfacet
  facet normal 0 0 -1
    outer loop
      vertex -4.75 27 -6
      vertex 6.5 35.25 -6
      vertex 4.75 27 -6
    endloop
  endfacet
  facet normal 0 0 -1
    outer loop
      vertex -6.5 35.25 -6
      vertex 6.5 35.25 -6
      vertex -4.75 27 -6
    endloop
  endfacet
  facet normal 0 0 -1
    outer loop
      vertex -7.26393 24.6011 -6
      vertex -4.75 27 -6
      vertex -6.5 22.25 -6
    endloop
  endfacet
  facet normal 0 0 -1
    outer loop
      vertex 6.5 35.25 -6
      vertex -6.5 35.25 -6
      vertex 7.26393 37.6011 -6
    endloop
  endfacet
  facet normal 0 0 -1
    outer loop
      vertex -7.26393 37.6011 -6
      vertex 7.26393 37.6011 -6
      vertex -6.5 35.25 -6
    endloop
  endfacet
  facet normal 0 0 -1
    outer loop
      vertex 7.26393 37.6011 -6
      vertex -7.26393 37.6011 -6
      vertex 9.26393 39.0542 -6
    endloop
  endfacet
  facet normal 0 0 -1
    outer loop
      vertex -9.26393 39.0542 -6
      vertex 9.26393 39.0542 -6
      vertex -7.26393 37.6011 -6
    endloop
  endfacet
  facet normal 0 0 -1
    outer loop
      vertex 9.26393 39.0542 -6
      vertex -9.26393 39.0542 -6
      vertex 19 43 -6
    endloop
  endfacet
  facet normal 0 0 -1
    outer loop
      vertex -19 43 -6
      vertex -9.26393 39.0542 -6
      vertex -11.7361 39.0542 -6
    endloop
  endfacet
  facet normal 0 0 -1
    outer loop
      vertex -9.26393 39.0542 -6
      vertex -19 43 -6
      vertex 19 43 -6
    endloop
  endfacet
  facet normal 0 0 -1
    outer loop
      vertex -13.7361 37.6011 -6
      vertex -19 43 -6
      vertex -11.7361 39.0542 -6
    endloop
  endfacet
  facet normal 0 0 -1
    outer loop
      vertex -14.5 35.25 -6
      vertex -19 43 -6
      vertex -13.7361 37.6011 -6
    endloop
  endfacet
  facet normal 0 0 -1
    outer loop
      vertex -14.5 22.25 -6
      vertex -19 43 -6
      vertex -14.5 35.25 -6
    endloop
  endfacet
  facet normal -1 0 0
    outer loop
      vertex -19 43 -6
      vertex -19 23.4266 -3.46353
      vertex -19 43 0
    endloop
  endfacet
  facet normal -1 0 0
    outer loop
      vertex -19 43 -6
      vertex -19 22.8817 -4.21353
      vertex -19 23.4266 -3.46353
    endloop
  endfacet
  facet normal -1 0 0
    outer loop
      vertex -19 43 -6
      vertex -19 22 -4.5
      vertex -19 22.8817 -4.21353
    endloop
  endfacet
  facet normal -1 -0 0
    outer loop
      vertex -19 20.5734 -3.46353
      vertex -19 3 -6
      vertex -19 20.5734 -2.53648
    endloop
  endfacet
  facet normal -1 -0 0
    outer loop
      vertex -19 21.1183 -4.21353
      vertex -19 3 -6
      vertex -19 20.5734 -3.46353
    endloop
  endfacet
  facet normal -1 -0 0
    outer loop
      vertex -19 22 -4.5
      vertex -19 3 -6
      vertex -19 21.1183 -4.21353
    endloop
  endfacet
  facet normal -1 0 0
    outer loop
      vertex -19 3 -6
      vertex -19 22 -4.5
      vertex -19 43 -6
    endloop
  endfacet
  facet normal -1 0 0
    outer loop
      vertex -19 23.4266 -2.53648
      vertex -19 43 0
      vertex -19 23.4266 -3.46353
    endloop
  endfacet
  facet normal -1 0 0
    outer loop
      vertex -19 22.8817 -1.78648
      vertex -19 43 0
      vertex -19 23.4266 -2.53648
    endloop
  endfacet
  facet normal -1 0 0
    outer loop
      vertex -19 22 -1.5
      vertex -19 43 0
      vertex -19 22.8817 -1.78648
    endloop
  endfacet
  facet normal -1 0 0
    outer loop
      vertex -19 3 0
      vertex -19 20.5734 -2.53648
      vertex -19 3 -6
    endloop
  endfacet
  facet normal -1 0 0
    outer loop
      vertex -19 20.5734 -2.53648
      vertex -19 3 0
      vertex -19 21.1183 -1.78648
    endloop
  endfacet
  facet normal -1 0 0
    outer loop
      vertex -19 22 -1.5
      vertex -19 3 0
      vertex -19 43 0
    endloop
  endfacet
  facet normal -1 0 0
    outer loop
      vertex -19 21.1183 -1.78648
      vertex -19 3 0
      vertex -19 22 -1.5
    endloop
  endfacet
  facet normal 0 1 -0
    outer loop
      vertex 19 43 -6
      vertex -19 43 0
      vertex 19 43 0
    endloop
  endfacet
  facet normal 0 1 0
    outer loop
      vertex -19 43 0
      vertex 19 43 -6
      vertex -19 43 -6
    endloop
  endfacet
  facet normal 0 -1 0
    outer loop
      vertex -19 3 0
      vertex -15 3 -3
      vertex -15 3 0
    endloop
  endfacet
  facet normal 0 -1 -0
    outer loop
      vertex -15 3 -3
      vertex -19 3 -6
      vertex 15 3 -3
    endloop
  endfacet
  facet normal 0 -1 0
    outer loop
      vertex -19 3 -6
      vertex -15 3 -3
      vertex -19 3 0
    endloop
  endfacet
  facet normal 0 -1 0
    outer loop
      vertex 15 3 -3
      vertex 19 3 0
      vertex 15 3 0
    endloop
  endfacet
  facet normal 0 -1 0
    outer loop
      vertex 15 3 -3
      vertex 19 3 -6
      vertex 19 3 0
    endloop
  endfacet
  facet normal 0 -1 0
    outer loop
      vertex 19 3 -6
      vertex 15 3 -3
      vertex -19 3 -6
    endloop
  endfacet
  facet normal -0 0 1
    outer loop
      vertex 15 25 16
      vertex 19 19 16
      vertex 19 25 16
    endloop
  endfacet
  facet normal 0 0 1
    outer loop
      vertex 19 19 16
      vertex 15 25 16
      vertex 15 19 16
    endloop
  endfacet
  facet normal -1 0 0
    outer loop
      vertex 15 19 0
      vertex 15 25 16
      vertex 15 25 0
    endloop
  endfacet
  facet normal -1 -0 0
    outer loop
      vertex 15 25 16
      vertex 15 19 0
      vertex 15 19 16
    endloop
  endfacet
  facet normal 0 1 -0
    outer loop
      vertex 19 25 0
      vertex 15 25 16
      vertex 19 25 16
    endloop
  endfacet
  facet normal 0 1 0
    outer loop
      vertex 15 25 16
      vertex 19 25 0
      vertex 15 25 0
    endloop
  endfacet
  facet normal 0 -1 0
    outer loop
      vertex 15 19 0
      vertex 19 19 16
      vertex 15 19 16
    endloop
  endfacet
  facet normal 0 -1 -0
    outer loop
      vertex 19 19 16
      vertex 15 19 0
      vertex 19 19 0
    endloop
  endfacet
  facet normal 0.951064 0.308995 0
    outer loop
      vertex -11.5113 21.5153 -3
      vertex -11.75 22.25 -4.625
      vertex -11.75 22.25 -3
    endloop
  endfacet
  facet normal 0.951064 0.308995 0
    outer loop
      vertex -11.75 22.25 -4.625
      vertex -11.5113 21.5153 -3
      vertex -11.5113 21.5153 -4.625
    endloop
  endfacet
  facet normal -0.587813 -0.808997 0
    outer loop
      vertex -10.1137 23.4388 -4.625
      vertex -9.48873 22.9847 -3
      vertex -10.1137 23.4388 -3
    endloop
  endfacet
  facet normal -0.587813 -0.808997 -0
    outer loop
      vertex -9.48873 22.9847 -3
      vertex -10.1137 23.4388 -4.625
      vertex -9.48873 22.9847 -4.625
    endloop
  endfacet
  facet normal -0.951052 -0.30903 0
    outer loop
      vertex -9.25 22.25 -4.625
      vertex -9.48873 22.9847 -3
      vertex -9.48873 22.9847 -4.625
    endloop
  endfacet
  facet normal -0.951052 -0.30903 0
    outer loop
      vertex -9.48873 22.9847 -3
      vertex -9.25 22.25 -4.625
      vertex -9.25 22.25 -3
    endloop
  endfacet
  facet normal 0 -1 0
    outer loop
      vertex -10.8863 23.4388 -4.625
      vertex -10.1137 23.4388 -3
      vertex -10.8863 23.4388 -3
    endloop
  endfacet
  facet normal 0 -1 -0
    outer loop
      vertex -10.1137 23.4388 -3
      vertex -10.8863 23.4388 -4.625
      vertex -10.1137 23.4388 -4.625
    endloop
  endfacet
  facet normal 0.587795 -0.80901 0
    outer loop
      vertex -11.5113 22.9847 -4.625
      vertex -10.8863 23.4388 -3
      vertex -11.5113 22.9847 -3
    endloop
  endfacet
  facet normal 0.587795 -0.80901 0
    outer loop
      vertex -10.8863 23.4388 -4.625
      vertex -10.8863 23.4388 -3
      vertex -11.5113 22.9847 -4.625
    endloop
  endfacet
  facet normal -0.951052 0.30903 0
    outer loop
      vertex -9.48873 21.5153 -4.625
      vertex -9.25 22.25 -3
      vertex -9.25 22.25 -4.625
    endloop
  endfacet
  facet normal -0.951052 0.30903 0
    outer loop
      vertex -9.25 22.25 -3
      vertex -9.48873 21.5153 -4.625
      vertex -9.48873 21.5153 -3
    endloop
  endfacet
  facet normal 0.587795 0.80901 -0
    outer loop
      vertex -10.8863 21.0612 -4.625
      vertex -11.5113 21.5153 -3
      vertex -10.8863 21.0612 -3
    endloop
  endfacet
  facet normal 0.587795 0.80901 0
    outer loop
      vertex -11.5113 21.5153 -3
      vertex -10.8863 21.0612 -4.625
      vertex -11.5113 21.5153 -4.625
    endloop
  endfacet
  facet normal 0 1 -0
    outer loop
      vertex -10.1137 21.0612 -4.625
      vertex -10.8863 21.0612 -3
      vertex -10.1137 21.0612 -3
    endloop
  endfacet
  facet normal 0 1 0
    outer loop
      vertex -10.8863 21.0612 -3
      vertex -10.1137 21.0612 -4.625
      vertex -10.8863 21.0612 -4.625
    endloop
  endfacet
  facet normal -0.587813 0.808997 0
    outer loop
      vertex -9.48873 21.5153 -3
      vertex -9.48873 21.5153 -4.625
      vertex -10.1137 21.0612 -3
    endloop
  endfacet
  facet normal -0.587813 0.808997 0
    outer loop
      vertex -10.1137 21.0612 -3
      vertex -9.48873 21.5153 -4.625
      vertex -10.1137 21.0612 -4.625
    endloop
  endfacet
  facet normal 0.951064 -0.308995 0
    outer loop
      vertex -11.75 22.25 -3
      vertex -11.5113 22.9847 -4.625
      vertex -11.5113 22.9847 -3
    endloop
  endfacet
  facet normal 0.951064 -0.308995 0
    outer loop
      vertex -11.5113 22.9847 -4.625
      vertex -11.75 22.25 -3
      vertex -11.75 22.25 -4.625
    endloop
  endfacet
  facet normal 0.442572 -0.143789 -0.88513
    outer loop
      vertex -11.75 22.25 -4.625
      vertex -13.7361 24.6011 -6
      vertex -11.5113 22.9847 -4.625
    endloop
  endfacet
  facet normal 0.442566 -0.143795 -0.885132
    outer loop
      vertex -13.7361 24.6011 -6
      vertex -11.75 22.25 -4.625
      vertex -14.5 22.25 -6
    endloop
  endfacet
  facet normal -0.442566 0.1438 -0.885131
    outer loop
      vertex -7.26393 19.8989 -6
      vertex -9.25 22.25 -4.625
      vertex -6.5 22.25 -6
    endloop
  endfacet
  facet normal -0.442562 0.143804 -0.885132
    outer loop
      vertex -7.26393 19.8989 -6
      vertex -9.48873 21.5153 -4.625
      vertex -9.25 22.25 -4.625
    endloop
  endfacet
  facet normal 0.273526 -0.376467 -0.885131
    outer loop
      vertex -11.5113 22.9847 -4.625
      vertex -11.7361 26.0542 -6
      vertex -10.8863 23.4388 -4.625
    endloop
  endfacet
  facet normal 0.273523 -0.376468 -0.885131
    outer loop
      vertex -11.7361 26.0542 -6
      vertex -11.5113 22.9847 -4.625
      vertex -13.7361 24.6011 -6
    endloop
  endfacet
  facet normal 0 -0.465342 -0.885131
    outer loop
      vertex -10.8863 23.4388 -4.625
      vertex -9.26393 26.0542 -6
      vertex -10.1137 23.4388 -4.625
    endloop
  endfacet
  facet normal 0 -0.465342 -0.885131
    outer loop
      vertex -10.8863 23.4388 -4.625
      vertex -11.7361 26.0542 -6
      vertex -9.26393 26.0542 -6
    endloop
  endfacet
  facet normal -0.273523 0.376468 -0.885131
    outer loop
      vertex -9.26393 18.4458 -6
      vertex -9.48873 21.5153 -4.625
      vertex -7.26393 19.8989 -6
    endloop
  endfacet
  facet normal -0.273538 0.376465 -0.885128
    outer loop
      vertex -9.48873 21.5153 -4.625
      vertex -9.26393 18.4458 -6
      vertex -10.1137 21.0612 -4.625
    endloop
  endfacet
  facet normal -0.273523 -0.376468 -0.885131
    outer loop
      vertex -9.48873 22.9847 -4.625
      vertex -9.26393 26.0542 -6
      vertex -7.26393 24.6011 -6
    endloop
  endfacet
  facet normal -0.273538 -0.376465 -0.885128
    outer loop
      vertex -9.26393 26.0542 -6
      vertex -9.48873 22.9847 -4.625
      vertex -10.1137 23.4388 -4.625
    endloop
  endfacet
  facet normal 0 0.465342 -0.885131
    outer loop
      vertex -9.26393 18.4458 -6
      vertex -10.8863 21.0612 -4.625
      vertex -10.1137 21.0612 -4.625
    endloop
  endfacet
  facet normal 0 0.465342 -0.885131
    outer loop
      vertex -10.8863 21.0612 -4.625
      vertex -9.26393 18.4458 -6
      vertex -11.7361 18.4458 -6
    endloop
  endfacet
  facet normal -0.442566 -0.1438 -0.885131
    outer loop
      vertex -9.25 22.25 -4.625
      vertex -7.26393 24.6011 -6
      vertex -6.5 22.25 -6
    endloop
  endfacet
  facet normal -0.442562 -0.143804 -0.885132
    outer loop
      vertex -7.26393 24.6011 -6
      vertex -9.25 22.25 -4.625
      vertex -9.48873 22.9847 -4.625
    endloop
  endfacet
  facet normal 0.273526 0.376467 -0.885131
    outer loop
      vertex -11.7361 18.4458 -6
      vertex -11.5113 21.5153 -4.625
      vertex -10.8863 21.0612 -4.625
    endloop
  endfacet
  facet normal 0.273523 0.376468 -0.885131
    outer loop
      vertex -11.5113 21.5153 -4.625
      vertex -11.7361 18.4458 -6
      vertex -13.7361 19.8989 -6
    endloop
  endfacet
  facet normal 0.442572 0.143789 -0.88513
    outer loop
      vertex -13.7361 19.8989 -6
      vertex -11.75 22.25 -4.625
      vertex -11.5113 21.5153 -4.625
    endloop
  endfacet
  facet normal 0.442566 0.143795 -0.885132
    outer loop
      vertex -11.75 22.25 -4.625
      vertex -13.7361 19.8989 -6
      vertex -14.5 22.25 -6
    endloop
  endfacet
  facet normal 0.951052 -0.30903 0
    outer loop
      vertex 9.25 22.25 -3
      vertex 9.48873 22.9847 -4.625
      vertex 9.48873 22.9847 -3
    endloop
  endfacet
  facet normal 0.951052 -0.30903 0
    outer loop
      vertex 9.48873 22.9847 -4.625
      vertex 9.25 22.25 -3
      vertex 9.25 22.25 -4.625
    endloop
  endfacet
  facet normal 0.587813 0.808997 -0
    outer loop
      vertex 10.1137 21.0612 -4.625
      vertex 9.48873 21.5153 -3
      vertex 10.1137 21.0612 -3
    endloop
  endfacet
  facet normal 0.587813 0.808997 -0
    outer loop
      vertex 9.48873 21.5153 -4.625
      vertex 9.48873 21.5153 -3
      vertex 10.1137 21.0612 -4.625
    endloop
  endfacet
  facet normal -0.587795 -0.80901 0
    outer loop
      vertex 10.8863 23.4388 -3
      vertex 11.5113 22.9847 -4.625
      vertex 11.5113 22.9847 -3
    endloop
  endfacet
  facet normal -0.587795 -0.80901 -0
    outer loop
      vertex 10.8863 23.4388 -3
      vertex 10.8863 23.4388 -4.625
      vertex 11.5113 22.9847 -4.625
    endloop
  endfacet
  facet normal -0.951064 -0.308995 0
    outer loop
      vertex 11.75 22.25 -4.625
      vertex 11.5113 22.9847 -3
      vertex 11.5113 22.9847 -4.625
    endloop
  endfacet
  facet normal -0.951064 -0.308995 0
    outer loop
      vertex 11.5113 22.9847 -3
      vertex 11.75 22.25 -4.625
      vertex 11.75 22.25 -3
    endloop
  endfacet
  facet normal 0 -1 0
    outer loop
      vertex 10.1137 23.4388 -4.625
      vertex 10.8863 23.4388 -3
      vertex 10.1137 23.4388 -3
    endloop
  endfacet
  facet normal 0 -1 -0
    outer loop
      vertex 10.8863 23.4388 -3
      vertex 10.1137 23.4388 -4.625
      vertex 10.8863 23.4388 -4.625
    endloop
  endfacet
  facet normal -0.587795 0.80901 0
    outer loop
      vertex 11.5113 21.5153 -4.625
      vertex 10.8863 21.0612 -3
      vertex 11.5113 21.5153 -3
    endloop
  endfacet
  facet normal -0.587795 0.80901 0
    outer loop
      vertex 10.8863 21.0612 -3
      vertex 11.5113 21.5153 -4.625
      vertex 10.8863 21.0612 -4.625
    endloop
  endfacet
  facet normal 0 1 -0
    outer loop
      vertex 10.8863 21.0612 -4.625
      vertex 10.1137 21.0612 -3
      vertex 10.8863 21.0612 -3
    endloop
  endfacet
  facet normal 0 1 0
    outer loop
      vertex 10.1137 21.0612 -3
      vertex 10.8863 21.0612 -4.625
      vertex 10.1137 21.0612 -4.625
    endloop
  endfacet
  facet normal 0.587813 -0.808997 0
    outer loop
      vertex 9.48873 22.9847 -4.625
      vertex 10.1137 23.4388 -3
      vertex 9.48873 22.9847 -3
    endloop
  endfacet
  facet normal 0.587813 -0.808997 0
    outer loop
      vertex 10.1137 23.4388 -3
      vertex 9.48873 22.9847 -4.625
      vertex 10.1137 23.4388 -4.625
    endloop
  endfacet
  facet normal -0.951064 0.308995 0
    outer loop
      vertex 11.5113 21.5153 -4.625
      vertex 11.75 22.25 -3
      vertex 11.75 22.25 -4.625
    endloop
  endfacet
  facet normal -0.951064 0.308995 0
    outer loop
      vertex 11.75 22.25 -3
      vertex 11.5113 21.5153 -4.625
      vertex 11.5113 21.5153 -3
    endloop
  endfacet
  facet normal 0.951052 0.30903 0
    outer loop
      vertex 9.48873 21.5153 -3
      vertex 9.25 22.25 -4.625
      vertex 9.25 22.25 -3
    endloop
  endfacet
  facet normal 0.951052 0.30903 0
    outer loop
      vertex 9.25 22.25 -4.625
      vertex 9.48873 21.5153 -3
      vertex 9.48873 21.5153 -4.625
    endloop
  endfacet
  facet normal -0.442566 -0.143795 -0.885132
    outer loop
      vertex 11.75 22.25 -4.625
      vertex 13.7361 24.6011 -6
      vertex 14.5 22.25 -6
    endloop
  endfacet
  facet normal -0.442572 -0.143789 -0.88513
    outer loop
      vertex 13.7361 24.6011 -6
      vertex 11.75 22.25 -4.625
      vertex 11.5113 22.9847 -4.625
    endloop
  endfacet
  facet normal 0.442562 -0.143804 -0.885132
    outer loop
      vertex 9.25 22.25 -4.625
      vertex 7.26393 24.6011 -6
      vertex 9.48873 22.9847 -4.625
    endloop
  endfacet
  facet normal 0.442566 -0.1438 -0.885131
    outer loop
      vertex 7.26393 24.6011 -6
      vertex 9.25 22.25 -4.625
      vertex 6.5 22.25 -6
    endloop
  endfacet
  facet normal -0.442566 0.143795 -0.885132
    outer loop
      vertex 13.7361 19.8989 -6
      vertex 11.75 22.25 -4.625
      vertex 14.5 22.25 -6
    endloop
  endfacet
  facet normal -0.442572 0.143789 -0.88513
    outer loop
      vertex 11.5113 21.5153 -4.625
      vertex 11.75 22.25 -4.625
      vertex 13.7361 19.8989 -6
    endloop
  endfacet
  facet normal -0.273523 0.376468 -0.885131
    outer loop
      vertex 11.7361 18.4458 -6
      vertex 11.5113 21.5153 -4.625
      vertex 13.7361 19.8989 -6
    endloop
  endfacet
  facet normal -0.273526 0.376467 -0.885131
    outer loop
      vertex 11.5113 21.5153 -4.625
      vertex 11.7361 18.4458 -6
      vertex 10.8863 21.0612 -4.625
    endloop
  endfacet
  facet normal 0.273538 -0.376465 -0.885128
    outer loop
      vertex 9.48873 22.9847 -4.625
      vertex 9.26393 26.0542 -6
      vertex 10.1137 23.4388 -4.625
    endloop
  endfacet
  facet normal 0.273523 -0.376468 -0.885131
    outer loop
      vertex 9.26393 26.0542 -6
      vertex 9.48873 22.9847 -4.625
      vertex 7.26393 24.6011 -6
    endloop
  endfacet
  facet normal 0 -0.465342 -0.885131
    outer loop
      vertex 10.1137 23.4388 -4.625
      vertex 11.7361 26.0542 -6
      vertex 10.8863 23.4388 -4.625
    endloop
  endfacet
  facet normal -0 -0.465342 -0.885131
    outer loop
      vertex 11.7361 26.0542 -6
      vertex 10.1137 23.4388 -4.625
      vertex 9.26393 26.0542 -6
    endloop
  endfacet
  facet normal -0.273523 -0.376468 -0.885131
    outer loop
      vertex 11.5113 22.9847 -4.625
      vertex 11.7361 26.0542 -6
      vertex 13.7361 24.6011 -6
    endloop
  endfacet
  facet normal -0.273526 -0.376467 -0.885131
    outer loop
      vertex 11.7361 26.0542 -6
      vertex 11.5113 22.9847 -4.625
      vertex 10.8863 23.4388 -4.625
    endloop
  endfacet
  facet normal 0.442562 0.143804 -0.885132
    outer loop
      vertex 7.26393 19.8989 -6
      vertex 9.25 22.25 -4.625
      vertex 9.48873 21.5153 -4.625
    endloop
  endfacet
  facet normal 0.442566 0.1438 -0.885131
    outer loop
      vertex 9.25 22.25 -4.625
      vertex 7.26393 19.8989 -6
      vertex 6.5 22.25 -6
    endloop
  endfacet
  facet normal 0 0.465342 -0.885131
    outer loop
      vertex 11.7361 18.4458 -6
      vertex 10.1137 21.0612 -4.625
      vertex 10.8863 21.0612 -4.625
    endloop
  endfacet
  facet normal 0 0.465342 -0.885131
    outer loop
      vertex 10.1137 21.0612 -4.625
      vertex 11.7361 18.4458 -6
      vertex 9.26393 18.4458 -6
    endloop
  endfacet
  facet normal 0.273538 0.376465 -0.885128
    outer loop
      vertex 9.26393 18.4458 -6
      vertex 9.48873 21.5153 -4.625
      vertex 10.1137 21.0612 -4.625
    endloop
  endfacet
  facet normal 0.273523 0.376468 -0.885131
    outer loop
      vertex 9.48873 21.5153 -4.625
      vertex 9.26393 18.4458 -6
      vertex 7.26393 19.8989 -6
    endloop
  endfacet
  facet normal 0.951064 0.308995 0
    outer loop
      vertex -11.75 35.25 -3
      vertex -11.5113 34.5153 -4.625
      vertex -11.75 35.25 -4.625
    endloop
  endfacet
  facet normal 0.951064 0.308995 0
    outer loop
      vertex -11.5113 34.5153 -3
      vertex -11.5113 34.5153 -4.625
      vertex -11.75 35.25 -3
    endloop
  endfacet
  facet normal -0.587813 -0.808997 0
    outer loop
      vertex -10.1137 36.4388 -4.625
      vertex -9.48873 35.9847 -3
      vertex -10.1137 36.4388 -3
    endloop
  endfacet
  facet normal -0.587813 -0.808997 0
    outer loop
      vertex -9.48873 35.9847 -4.625
      vertex -9.48873 35.9847 -3
      vertex -10.1137 36.4388 -4.625
    endloop
  endfacet
  facet normal -0.951052 -0.30903 0
    outer loop
      vertex -9.25 35.25 -4.625
      vertex -9.48873 35.9847 -3
      vertex -9.48873 35.9847 -4.625
    endloop
  endfacet
  facet normal -0.951052 -0.30903 0
    outer loop
      vertex -9.48873 35.9847 -3
      vertex -9.25 35.25 -4.625
      vertex -9.25 35.25 -3
    endloop
  endfacet
  facet normal 0 -1 0
    outer loop
      vertex -10.8863 36.4388 -4.625
      vertex -10.1137 36.4388 -3
      vertex -10.8863 36.4388 -3
    endloop
  endfacet
  facet normal 0 -1 -0
    outer loop
      vertex -10.1137 36.4388 -3
      vertex -10.8863 36.4388 -4.625
      vertex -10.1137 36.4388 -4.625
    endloop
  endfacet
  facet normal -0.951052 0.30903 0
    outer loop
      vertex -9.48873 34.5153 -4.625
      vertex -9.25 35.25 -3
      vertex -9.25 35.25 -4.625
    endloop
  endfacet
  facet normal -0.951052 0.30903 0
    outer loop
      vertex -9.25 35.25 -3
      vertex -9.48873 34.5153 -4.625
      vertex -9.48873 34.5153 -3
    endloop
  endfacet
  facet normal 0.587795 -0.80901 0
    outer loop
      vertex -11.5113 35.9847 -4.625
      vertex -10.8863 36.4388 -3
      vertex -11.5113 35.9847 -3
    endloop
  endfacet
  facet normal 0.587795 -0.80901 0
    outer loop
      vertex -10.8863 36.4388 -3
      vertex -11.5113 35.9847 -4.625
      vertex -10.8863 36.4388 -4.625
    endloop
  endfacet
  facet normal 0.587795 0.80901 0
    outer loop
      vertex -10.8863 34.0612 -3
      vertex -11.5113 34.5153 -4.625
      vertex -11.5113 34.5153 -3
    endloop
  endfacet
  facet normal 0.587795 0.80901 0
    outer loop
      vertex -10.8863 34.0612 -3
      vertex -10.8863 34.0612 -4.625
      vertex -11.5113 34.5153 -4.625
    endloop
  endfacet
  facet normal 0 1 -0
    outer loop
      vertex -10.1137 34.0612 -4.625
      vertex -10.8863 34.0612 -3
      vertex -10.1137 34.0612 -3
    endloop
  endfacet
  facet normal 0 1 0
    outer loop
      vertex -10.8863 34.0612 -3
      vertex -10.1137 34.0612 -4.625
      vertex -10.8863 34.0612 -4.625
    endloop
  endfacet
  facet normal -0.587813 0.808997 0
    outer loop
      vertex -9.48873 34.5153 -4.625
      vertex -10.1137 34.0612 -3
      vertex -9.48873 34.5153 -3
    endloop
  endfacet
  facet normal -0.587813 0.808997 0
    outer loop
      vertex -10.1137 34.0612 -3
      vertex -9.48873 34.5153 -4.625
      vertex -10.1137 34.0612 -4.625
    endloop
  endfacet
  facet normal 0.951064 -0.308995 0
    outer loop
      vertex -11.75 35.25 -3
      vertex -11.5113 35.9847 -4.625
      vertex -11.5113 35.9847 -3
    endloop
  endfacet
  facet normal 0.951064 -0.308995 0
    outer loop
      vertex -11.5113 35.9847 -4.625
      vertex -11.75 35.25 -3
      vertex -11.75 35.25 -4.625
    endloop
  endfacet
  facet normal 0.442572 -0.143789 -0.88513
    outer loop
      vertex -11.75 35.25 -4.625
      vertex -13.7361 37.6011 -6
      vertex -11.5113 35.9847 -4.625
    endloop
  endfacet
  facet normal 0.442566 -0.143795 -0.885132
    outer loop
      vertex -13.7361 37.6011 -6
      vertex -11.75 35.25 -4.625
      vertex -14.5 35.25 -6
    endloop
  endfacet
  facet normal -0.442566 0.1438 -0.885131
    outer loop
      vertex -7.26393 32.8989 -6
      vertex -9.25 35.25 -4.625
      vertex -6.5 35.25 -6
    endloop
  endfacet
  facet normal -0.442562 0.143804 -0.885132
    outer loop
      vertex -9.25 35.25 -4.625
      vertex -7.26393 32.8989 -6
      vertex -9.48873 34.5153 -4.625
    endloop
  endfacet
  facet normal 0.273526 -0.376467 -0.885131
    outer loop
      vertex -11.5113 35.9847 -4.625
      vertex -11.7361 39.0542 -6
      vertex -10.8863 36.4388 -4.625
    endloop
  endfacet
  facet normal 0.273523 -0.376468 -0.885131
    outer loop
      vertex -11.7361 39.0542 -6
      vertex -11.5113 35.9847 -4.625
      vertex -13.7361 37.6011 -6
    endloop
  endfacet
  facet normal 0 -0.465342 -0.885131
    outer loop
      vertex -10.8863 36.4388 -4.625
      vertex -9.26393 39.0542 -6
      vertex -10.1137 36.4388 -4.625
    endloop
  endfacet
  facet normal -0 -0.465342 -0.885131
    outer loop
      vertex -9.26393 39.0542 -6
      vertex -10.8863 36.4388 -4.625
      vertex -11.7361 39.0542 -6
    endloop
  endfacet
  facet normal -0.273523 0.376468 -0.885131
    outer loop
      vertex -9.26393 31.4458 -6
      vertex -9.48873 34.5153 -4.625
      vertex -7.26393 32.8989 -6
    endloop
  endfacet
  facet normal -0.273538 0.376465 -0.885128
    outer loop
      vertex -9.48873 34.5153 -4.625
      vertex -9.26393 31.4458 -6
      vertex -10.1137 34.0612 -4.625
    endloop
  endfacet
  facet normal -0.273523 -0.376468 -0.885131
    outer loop
      vertex -9.48873 35.9847 -4.625
      vertex -9.26393 39.0542 -6
      vertex -7.26393 37.6011 -6
    endloop
  endfacet
  facet normal -0.273538 -0.376465 -0.885128
    outer loop
      vertex -9.26393 39.0542 -6
      vertex -9.48873 35.9847 -4.625
      vertex -10.1137 36.4388 -4.625
    endloop
  endfacet
  facet normal 0.442572 0.143789 -0.88513
    outer loop
      vertex -13.7361 32.8989 -6
      vertex -11.75 35.25 -4.625
      vertex -11.5113 34.5153 -4.625
    endloop
  endfacet
  facet normal 0.442566 0.143795 -0.885132
    outer loop
      vertex -11.75 35.25 -4.625
      vertex -13.7361 32.8989 -6
      vertex -14.5 35.25 -6
    endloop
  endfacet
  facet normal 0 0.465342 -0.885131
    outer loop
      vertex -9.26393 31.4458 -6
      vertex -10.8863 34.0612 -4.625
      vertex -10.1137 34.0612 -4.625
    endloop
  endfacet
  facet normal 0 0.465342 -0.885131
    outer loop
      vertex -11.7361 31.4458 -6
      vertex -10.8863 34.0612 -4.625
      vertex -9.26393 31.4458 -6
    endloop
  endfacet
  facet normal -0.442566 -0.1438 -0.885131
    outer loop
      vertex -9.25 35.25 -4.625
      vertex -7.26393 37.6011 -6
      vertex -6.5 35.25 -6
    endloop
  endfacet
  facet normal -0.442562 -0.143804 -0.885132
    outer loop
      vertex -9.48873 35.9847 -4.625
      vertex -7.26393 37.6011 -6
      vertex -9.25 35.25 -4.625
    endloop
  endfacet
  facet normal 0.273526 0.376467 -0.885131
    outer loop
      vertex -11.7361 31.4458 -6
      vertex -11.5113 34.5153 -4.625
      vertex -10.8863 34.0612 -4.625
    endloop
  endfacet
  facet normal 0.273523 0.376468 -0.885131
    outer loop
      vertex -13.7361 32.8989 -6
      vertex -11.5113 34.5153 -4.625
      vertex -11.7361 31.4458 -6
    endloop
  endfacet
  facet normal 0.951052 -0.30903 0
    outer loop
      vertex 9.25 35.25 -3
      vertex 9.48873 35.9847 -4.625
      vertex 9.48873 35.9847 -3
    endloop
  endfacet
  facet normal 0.951052 -0.30903 0
    outer loop
      vertex 9.48873 35.9847 -4.625
      vertex 9.25 35.25 -3
      vertex 9.25 35.25 -4.625
    endloop
  endfacet
  facet normal 0.587813 0.808997 -0
    outer loop
      vertex 10.1137 34.0612 -4.625
      vertex 9.48873 34.5153 -3
      vertex 10.1137 34.0612 -3
    endloop
  endfacet
  facet normal 0.587813 0.808997 0
    outer loop
      vertex 9.48873 34.5153 -3
      vertex 10.1137 34.0612 -4.625
      vertex 9.48873 34.5153 -4.625
    endloop
  endfacet
  facet normal -0.587795 -0.80901 0
    outer loop
      vertex 10.8863 36.4388 -4.625
      vertex 11.5113 35.9847 -3
      vertex 10.8863 36.4388 -3
    endloop
  endfacet
  facet normal -0.587795 -0.80901 -0
    outer loop
      vertex 11.5113 35.9847 -3
      vertex 10.8863 36.4388 -4.625
      vertex 11.5113 35.9847 -4.625
    endloop
  endfacet
  facet normal -0.951064 -0.308995 0
    outer loop
      vertex 11.75 35.25 -4.625
      vertex 11.5113 35.9847 -3
      vertex 11.5113 35.9847 -4.625
    endloop
  endfacet
  facet normal -0.951064 -0.308995 0
    outer loop
      vertex 11.5113 35.9847 -3
      vertex 11.75 35.25 -4.625
      vertex 11.75 35.25 -3
    endloop
  endfacet
  facet normal 0 -1 0
    outer loop
      vertex 10.1137 36.4388 -4.625
      vertex 10.8863 36.4388 -3
      vertex 10.1137 36.4388 -3
    endloop
  endfacet
  facet normal 0 -1 -0
    outer loop
      vertex 10.8863 36.4388 -3
      vertex 10.1137 36.4388 -4.625
      vertex 10.8863 36.4388 -4.625
    endloop
  endfacet
  facet normal -0.587795 0.80901 0
    outer loop
      vertex 11.5113 34.5153 -4.625
      vertex 10.8863 34.0612 -3
      vertex 11.5113 34.5153 -3
    endloop
  endfacet
  facet normal -0.587795 0.80901 0
    outer loop
      vertex 10.8863 34.0612 -4.625
      vertex 10.8863 34.0612 -3
      vertex 11.5113 34.5153 -4.625
    endloop
  endfacet
  facet normal 0 1 -0
    outer loop
      vertex 10.8863 34.0612 -4.625
      vertex 10.1137 34.0612 -3
      vertex 10.8863 34.0612 -3
    endloop
  endfacet
  facet normal 0 1 0
    outer loop
      vertex 10.1137 34.0612 -3
      vertex 10.8863 34.0612 -4.625
      vertex 10.1137 34.0612 -4.625
    endloop
  endfacet
  facet normal 0.587813 -0.808997 0
    outer loop
      vertex 9.48873 35.9847 -3
      vertex 9.48873 35.9847 -4.625
      vertex 10.1137 36.4388 -3
    endloop
  endfacet
  facet normal 0.587813 -0.808997 0
    outer loop
      vertex 10.1137 36.4388 -3
      vertex 9.48873 35.9847 -4.625
      vertex 10.1137 36.4388 -4.625
    endloop
  endfacet
  facet normal -0.951064 0.308995 0
    outer loop
      vertex 11.5113 34.5153 -4.625
      vertex 11.75 35.25 -3
      vertex 11.75 35.25 -4.625
    endloop
  endfacet
  facet normal -0.951064 0.308995 0
    outer loop
      vertex 11.5113 34.5153 -4.625
      vertex 11.5113 34.5153 -3
      vertex 11.75 35.25 -3
    endloop
  endfacet
  facet normal 0.951052 0.30903 0
    outer loop
      vertex 9.48873 34.5153 -3
      vertex 9.25 35.25 -4.625
      vertex 9.25 35.25 -3
    endloop
  endfacet
  facet normal 0.951052 0.30903 0
    outer loop
      vertex 9.25 35.25 -4.625
      vertex 9.48873 34.5153 -3
      vertex 9.48873 34.5153 -4.625
    endloop
  endfacet
  facet normal 0 0.465342 -0.885131
    outer loop
      vertex 11.7361 31.4458 -6
      vertex 10.1137 34.0612 -4.625
      vertex 10.8863 34.0612 -4.625
    endloop
  endfacet
  facet normal 0 0.465342 -0.885131
    outer loop
      vertex 10.1137 34.0612 -4.625
      vertex 11.7361 31.4458 -6
      vertex 9.26393 31.4458 -6
    endloop
  endfacet
  facet normal 0.442562 -0.143804 -0.885132
    outer loop
      vertex 9.25 35.25 -4.625
      vertex 7.26393 37.6011 -6
      vertex 9.48873 35.9847 -4.625
    endloop
  endfacet
  facet normal 0.442566 -0.1438 -0.885131
    outer loop
      vertex 7.26393 37.6011 -6
      vertex 9.25 35.25 -4.625
      vertex 6.5 35.25 -6
    endloop
  endfacet
  facet normal 0 -0.465342 -0.885131
    outer loop
      vertex 10.1137 36.4388 -4.625
      vertex 11.7361 39.0542 -6
      vertex 10.8863 36.4388 -4.625
    endloop
  endfacet
  facet normal -0 -0.465342 -0.885131
    outer loop
      vertex 11.7361 39.0542 -6
      vertex 10.1137 36.4388 -4.625
      vertex 9.26393 39.0542 -6
    endloop
  endfacet
  facet normal -0.273523 -0.376468 -0.885131
    outer loop
      vertex 11.5113 35.9847 -4.625
      vertex 11.7361 39.0542 -6
      vertex 13.7361 37.6011 -6
    endloop
  endfacet
  facet normal -0.273526 -0.376467 -0.885131
    outer loop
      vertex 11.7361 39.0542 -6
      vertex 11.5113 35.9847 -4.625
      vertex 10.8863 36.4388 -4.625
    endloop
  endfacet
  facet normal 0.273538 -0.376465 -0.885128
    outer loop
      vertex 9.48873 35.9847 -4.625
      vertex 9.26393 39.0542 -6
      vertex 10.1137 36.4388 -4.625
    endloop
  endfacet
  facet normal 0.273523 -0.376468 -0.885131
    outer loop
      vertex 9.26393 39.0542 -6
      vertex 9.48873 35.9847 -4.625
      vertex 7.26393 37.6011 -6
    endloop
  endfacet
  facet normal -0.442566 0.143795 -0.885132
    outer loop
      vertex 13.7361 32.8989 -6
      vertex 11.75 35.25 -4.625
      vertex 14.5 35.25 -6
    endloop
  endfacet
  facet normal -0.442572 0.143789 -0.88513
    outer loop
      vertex 11.75 35.25 -4.625
      vertex 13.7361 32.8989 -6
      vertex 11.5113 34.5153 -4.625
    endloop
  endfacet
  facet normal -0.273526 0.376467 -0.885131
    outer loop
      vertex 11.7361 31.4458 -6
      vertex 10.8863 34.0612 -4.625
      vertex 11.5113 34.5153 -4.625
    endloop
  endfacet
  facet normal -0.273523 0.376468 -0.885131
    outer loop
      vertex 11.5113 34.5153 -4.625
      vertex 13.7361 32.8989 -6
      vertex 11.7361 31.4458 -6
    endloop
  endfacet
  facet normal -0.442566 -0.143795 -0.885132
    outer loop
      vertex 11.75 35.25 -4.625
      vertex 13.7361 37.6011 -6
      vertex 14.5 35.25 -6
    endloop
  endfacet
  facet normal -0.442572 -0.143789 -0.88513
    outer loop
      vertex 13.7361 37.6011 -6
      vertex 11.75 35.25 -4.625
      vertex 11.5113 35.9847 -4.625
    endloop
  endfacet
  facet normal 0.442562 0.143804 -0.885132
    outer loop
      vertex 7.26393 32.8989 -6
      vertex 9.25 35.25 -4.625
      vertex 9.48873 34.5153 -4.625
    endloop
  endfacet
  facet normal 0.442566 0.1438 -0.885131
    outer loop
      vertex 9.25 35.25 -4.625
      vertex 7.26393 32.8989 -6
      vertex 6.5 35.25 -6
    endloop
  endfacet
  facet normal 0.273538 0.376465 -0.885128
    outer loop
      vertex 9.26393 31.4458 -6
      vertex 9.48873 34.5153 -4.625
      vertex 10.1137 34.0612 -4.625
    endloop
  endfacet
  facet normal 0.273523 0.376468 -0.885131
    outer loop
      vertex 9.48873 34.5153 -4.625
      vertex 9.26393 31.4458 -6
      vertex 7.26393 32.8989 -6
    endloop
  endfacet
  facet normal -1 0 0
    outer loop
      vertex 4.75 17.5 -6
      vertex 4.75 27 -3
      vertex 4.75 27 -6
    endloop
  endfacet
  facet normal -1 -0 0
    outer loop
      vertex 4.75 27 -3
      vertex 4.75 17.5 -6
      vertex 4.75 17.5 -3
    endloop
  endfacet
  facet normal 1 -0 0
    outer loop
      vertex -4.75 17.5 -3
      vertex -4.75 27 -6
      vertex -4.75 27 -3
    endloop
  endfacet
  facet normal 1 0 0
    outer loop
      vertex -4.75 27 -6
      vertex -4.75 17.5 -3
      vertex -4.75 17.5 -6
    endloop
  endfacet
  facet normal 0 -1 0
    outer loop
      vertex -4.75 27 -6
      vertex 4.75 27 -3
      vertex -4.75 27 -3
    endloop
  endfacet
  facet normal 0 -1 -0
    outer loop
      vertex 4.75 27 -3
      vertex -4.75 27 -6
      vertex 4.75 27 -6
    endloop
  endfacet
  facet normal 0 1 -0
    outer loop
      vertex 4.75 17.5 -6
      vertex -4.75 17.5 -3
      vertex 4.75 17.5 -3
    endloop
  endfacet
  facet normal 0 1 0
    outer loop
      vertex -4.75 17.5 -3
      vertex 4.75 17.5 -6
      vertex -4.75 17.5 -6
    endloop
  endfacet
  facet normal 0 -1 0
    outer loop
      vertex -19 23.4266 -2.53648
      vertex -15 23.4266 -3
      vertex -15 23.4266 -2.53648
    endloop
  endfacet
  facet normal 0 -1 0
    outer loop
      vertex -19 23.4266 -3.46353
      vertex -15 23.4266 -3
      vertex -19 23.4266 -2.53648
    endloop
  endfacet
  facet normal 0 -1 -0
    outer loop
      vertex -15 23.4266 -3
      vertex -19 23.4266 -3.46353
      vertex -15 23.4266 -3.46353
    endloop
  endfacet
  facet normal 1 0 0
    outer loop
      vertex -15 39 0
      vertex -15 23.4266 -2.53648
      vertex -15 39 -3
    endloop
  endfacet
  facet normal 1 0 0
    outer loop
      vertex -15 39 0
      vertex -15 22.8817 -1.78648
      vertex -15 23.4266 -2.53648
    endloop
  endfacet
  facet normal 1 0 0
    outer loop
      vertex -15 39 0
      vertex -15 22 -1.5
      vertex -15 22.8817 -1.78648
    endloop
  endfacet
  facet normal 1 -0 0
    outer loop
      vertex -15 3 0
      vertex -15 22 -1.5
      vertex -15 39 0
    endloop
  endfacet
  facet normal 1 0 0
    outer loop
      vertex -15 3 0
      vertex -15 21.1183 -1.78648
      vertex -15 22 -1.5
    endloop
  endfacet
  facet normal 1 0 0
    outer loop
      vertex -15 3 0
      vertex -15 20.5734 -2.53648
      vertex -15 21.1183 -1.78648
    endloop
  endfacet
  facet normal 1 0 0
    outer loop
      vertex -15 3 -3
      vertex -15 20.5734 -2.53648
      vertex -15 3 0
    endloop
  endfacet
  facet normal 1 0 0
    outer loop
      vertex -15 20.5734 -2.53648
      vertex -15 3 -3
      vertex -15 20.5734 -3
    endloop
  endfacet
  facet normal 1 0 0
    outer loop
      vertex -15 39 -3
      vertex -15 23.4266 -2.53648
      vertex -15 23.4266 -3
    endloop
  endfacet
  facet normal -1 0 0
    outer loop
      vertex -15 22.8817 -4.21353
      vertex -15 23.4266 -3
      vertex -15 23.4266 -3.46353
    endloop
  endfacet
  facet normal -1 0 0
    outer loop
      vertex -15 22 -4.5
      vertex -15 23.4266 -3
      vertex -15 22.8817 -4.21353
    endloop
  endfacet
  facet normal -1 0 0
    outer loop
      vertex -15 20.5734 -3
      vertex -15 22 -4.5
      vertex -15 21.1183 -4.21353
    endloop
  endfacet
  facet normal -1 0 0
    outer loop
      vertex -15 20.5734 -3
      vertex -15 21.1183 -4.21353
      vertex -15 20.5734 -3.46353
    endloop
  endfacet
  facet normal -1 0 0
    outer loop
      vertex -15 22 -4.5
      vertex -15 20.5734 -3
      vertex -15 23.4266 -3
    endloop
  endfacet
  facet normal 0 0.309015 -0.951057
    outer loop
      vertex -19 21.1183 -1.78648
      vertex -15 22 -1.5
      vertex -15 21.1183 -1.78648
    endloop
  endfacet
  facet normal 0 0.309015 -0.951057
    outer loop
      vertex -15 22 -1.5
      vertex -19 21.1183 -1.78648
      vertex -19 22 -1.5
    endloop
  endfacet
  facet normal -0 0.309006 0.95106
    outer loop
      vertex -19 22 -4.5
      vertex -15 21.1183 -4.21353
      vertex -15 22 -4.5
    endloop
  endfacet
  facet normal 0 0.309006 0.95106
    outer loop
      vertex -15 21.1183 -4.21353
      vertex -19 22 -4.5
      vertex -19 21.1183 -4.21353
    endloop
  endfacet
  facet normal 0 -0.809021 -0.58778
    outer loop
      vertex -19 23.4266 -2.53648
      vertex -15 22.8817 -1.78648
      vertex -19 22.8817 -1.78648
    endloop
  endfacet
  facet normal 0 -0.809021 -0.58778
    outer loop
      vertex -15 22.8817 -1.78648
      vertex -19 23.4266 -2.53648
      vertex -15 23.4266 -2.53648
    endloop
  endfacet
  facet normal 0 -0.309006 0.95106
    outer loop
      vertex -19 22.8817 -4.21353
      vertex -15 22 -4.5
      vertex -15 22.8817 -4.21353
    endloop
  endfacet
  facet normal 0 -0.309006 0.95106
    outer loop
      vertex -15 22 -4.5
      vertex -19 22.8817 -4.21353
      vertex -19 22 -4.5
    endloop
  endfacet
  facet normal 0 -0.809021 0.58778
    outer loop
      vertex -19 22.8817 -4.21353
      vertex -15 23.4266 -3.46353
      vertex -19 23.4266 -3.46353
    endloop
  endfacet
  facet normal 0 -0.809021 0.58778
    outer loop
      vertex -15 23.4266 -3.46353
      vertex -19 22.8817 -4.21353
      vertex -15 22.8817 -4.21353
    endloop
  endfacet
  facet normal 0 1 -0
    outer loop
      vertex -15 20.5734 -3
      vertex -19 20.5734 -2.53648
      vertex -15 20.5734 -2.53648
    endloop
  endfacet
  facet normal 0 1 0
    outer loop
      vertex -19 20.5734 -3.46353
      vertex -15 20.5734 -3
      vertex -15 20.5734 -3.46353
    endloop
  endfacet
  facet normal 0 1 0
    outer loop
      vertex -15 20.5734 -3
      vertex -19 20.5734 -3.46353
      vertex -19 20.5734 -2.53648
    endloop
  endfacet
  facet normal 0 -0.309015 -0.951057
    outer loop
      vertex -19 22 -1.5
      vertex -15 22.8817 -1.78648
      vertex -15 22 -1.5
    endloop
  endfacet
  facet normal -0 -0.309015 -0.951057
    outer loop
      vertex -15 22.8817 -1.78648
      vertex -19 22 -1.5
      vertex -19 22.8817 -1.78648
    endloop
  endfacet
  facet normal 0 0.809021 0.58778
    outer loop
      vertex -15 21.1183 -4.21353
      vertex -19 20.5734 -3.46353
      vertex -15 20.5734 -3.46353
    endloop
  endfacet
  facet normal 0 0.809021 0.58778
    outer loop
      vertex -19 20.5734 -3.46353
      vertex -15 21.1183 -4.21353
      vertex -19 21.1183 -4.21353
    endloop
  endfacet
  facet normal 0 0.809021 -0.58778
    outer loop
      vertex -15 20.5734 -2.53648
      vertex -19 21.1183 -1.78648
      vertex -15 21.1183 -1.78648
    endloop
  endfacet
  facet normal 0 0.809021 -0.58778
    outer loop
      vertex -19 21.1183 -1.78648
      vertex -15 20.5734 -2.53648
      vertex -19 20.5734 -2.53648
    endloop
  endfacet
  facet normal 0 -1 0
    outer loop
      vertex 15 23.4266 -3
      vertex 19 23.4266 -2.53648
      vertex 15 23.4266 -2.53648
    endloop
  endfacet
  facet normal 0 -1 0
    outer loop
      vertex 19 23.4266 -3.46353
      vertex 15 23.4266 -3
      vertex 15 23.4266 -3.46353
    endloop
  endfacet
  facet normal 0 -1 0
    outer loop
      vertex 15 23.4266 -3
      vertex 19 23.4266 -3.46353
      vertex 19 23.4266 -2.53648
    endloop
  endfacet
  facet normal -1 0 0
    outer loop
      vertex 15 20.5734 -3
      vertex 15 19 0
      vertex 15 20.5734 -2.53648
    endloop
  endfacet
  facet normal -1 0 0
    outer loop
      vertex 15 3 -3
      vertex 15 19 0
      vertex 15 20.5734 -3
    endloop
  endfacet
  facet normal -1 -0 0
    outer loop
      vertex 15 19 0
      vertex 15 3 -3
      vertex 15 3 0
    endloop
  endfacet
  facet normal -1 0 0
    outer loop
      vertex 15 39 -3
      vertex 15 25 0
      vertex 15 39 0
    endloop
  endfacet
  facet normal -1 0 0
    outer loop
      vertex 15 23.4266 -3
      vertex 15 25 0
      vertex 15 39 -3
    endloop
  endfacet
  facet normal -1 0 0
    outer loop
      vertex 15 23.4266 -2.53648
      vertex 15 25 0
      vertex 15 23.4266 -3
    endloop
  endfacet
  facet normal -1 0 0
    outer loop
      vertex 15 22.8817 -1.78648
      vertex 15 25 0
      vertex 15 23.4266 -2.53648
    endloop
  endfacet
  facet normal -1 0 0
    outer loop
      vertex 15 22 -1.5
      vertex 15 25 0
      vertex 15 22.8817 -1.78648
    endloop
  endfacet
  facet normal -1 0 0
    outer loop
      vertex 15 19 0
      vertex 15 22 -1.5
      vertex 15 21.1183 -1.78648
    endloop
  endfacet
  facet normal -1 0 0
    outer loop
      vertex 15 22 -1.5
      vertex 15 19 0
      vertex 15 25 0
    endloop
  endfacet
  facet normal -1 0 0
    outer loop
      vertex 15 19 0
      vertex 15 21.1183 -1.78648
      vertex 15 20.5734 -2.53648
    endloop
  endfacet
  facet normal 1 0 0
    outer loop
      vertex 15 23.4266 -3
      vertex 15 22.8817 -4.21353
      vertex 15 23.4266 -3.46353
    endloop
  endfacet
  facet normal 1 0 0
    outer loop
      vertex 15 23.4266 -3
      vertex 15 22 -4.5
      vertex 15 22.8817 -4.21353
    endloop
  endfacet
  facet normal 1 -0 0
    outer loop
      vertex 15 20.5734 -3
      vertex 15 22 -4.5
      vertex 15 23.4266 -3
    endloop
  endfacet
  facet normal 1 0 0
    outer loop
      vertex 15 22 -4.5
      vertex 15 20.5734 -3
      vertex 15 21.1183 -4.21353
    endloop
  endfacet
  facet normal 1 0 0
    outer loop
      vertex 15 21.1183 -4.21353
      vertex 15 20.5734 -3
      vertex 15 20.5734 -3.46353
    endloop
  endfacet
  facet normal 0 0.309015 -0.951057
    outer loop
      vertex 15 21.1183 -1.78648
      vertex 19 22 -1.5
      vertex 19 21.1183 -1.78648
    endloop
  endfacet
  facet normal 0 0.309015 -0.951057
    outer loop
      vertex 19 22 -1.5
      vertex 15 21.1183 -1.78648
      vertex 15 22 -1.5
    endloop
  endfacet
  facet normal -0 0.309006 0.95106
    outer loop
      vertex 15 22 -4.5
      vertex 19 21.1183 -4.21353
      vertex 19 22 -4.5
    endloop
  endfacet
  facet normal 0 0.309006 0.95106
    outer loop
      vertex 19 21.1183 -4.21353
      vertex 15 22 -4.5
      vertex 15 21.1183 -4.21353
    endloop
  endfacet
  facet normal 0 -0.809021 -0.58778
    outer loop
      vertex 15 23.4266 -2.53648
      vertex 19 22.8817 -1.78648
      vertex 15 22.8817 -1.78648
    endloop
  endfacet
  facet normal 0 -0.809021 -0.58778
    outer loop
      vertex 19 22.8817 -1.78648
      vertex 15 23.4266 -2.53648
      vertex 19 23.4266 -2.53648
    endloop
  endfacet
  facet normal 0 -0.309006 0.95106
    outer loop
      vertex 15 22.8817 -4.21353
      vertex 19 22 -4.5
      vertex 19 22.8817 -4.21353
    endloop
  endfacet
  facet normal 0 -0.309006 0.95106
    outer loop
      vertex 19 22 -4.5
      vertex 15 22.8817 -4.21353
      vertex 15 22 -4.5
    endloop
  endfacet
  facet normal 0 -0.809021 0.58778
    outer loop
      vertex 15 22.8817 -4.21353
      vertex 19 23.4266 -3.46353
      vertex 15 23.4266 -3.46353
    endloop
  endfacet
  facet normal 0 -0.809021 0.58778
    outer loop
      vertex 19 23.4266 -3.46353
      vertex 15 22.8817 -4.21353
      vertex 19 22.8817 -4.21353
    endloop
  endfacet
  facet normal 0 1 0
    outer loop
      vertex 19 20.5734 -2.53648
      vertex 15 20.5734 -3
      vertex 15 20.5734 -2.53648
    endloop
  endfacet
  facet normal 0 1 -0
    outer loop
      vertex 19 20.5734 -3.46353
      vertex 15 20.5734 -3
      vertex 19 20.5734 -2.53648
    endloop
  endfacet
  facet normal 0 1 0
    outer loop
      vertex 15 20.5734 -3
      vertex 19 20.5734 -3.46353
      vertex 15 20.5734 -3.46353
    endloop
  endfacet
  facet normal 0 -0.309015 -0.951057
    outer loop
      vertex 15 22 -1.5
      vertex 19 22.8817 -1.78648
      vertex 19 22 -1.5
    endloop
  endfacet
  facet normal -0 -0.309015 -0.951057
    outer loop
      vertex 19 22.8817 -1.78648
      vertex 15 22 -1.5
      vertex 15 22.8817 -1.78648
    endloop
  endfacet
  facet normal 0 0.809021 0.58778
    outer loop
      vertex 19 21.1183 -4.21353
      vertex 15 20.5734 -3.46353
      vertex 19 20.5734 -3.46353
    endloop
  endfacet
  facet normal 0 0.809021 0.58778
    outer loop
      vertex 15 20.5734 -3.46353
      vertex 19 21.1183 -4.21353
      vertex 15 21.1183 -4.21353
    endloop
  endfacet
  facet normal 0 0.809021 -0.58778
    outer loop
      vertex 19 20.5734 -2.53648
      vertex 15 21.1183 -1.78648
      vertex 19 21.1183 -1.78648
    endloop
  endfacet
  facet normal 0 0.809021 -0.58778
    outer loop
      vertex 15 21.1183 -1.78648
      vertex 19 20.5734 -2.53648
      vertex 15 20.5734 -2.53648
    endloop
  endfacet
  facet normal -0 0 1
    outer loop
      vertex -10.1137 34.0612 -3
      vertex -4.75 27 -3
      vertex -9.48873 34.5153 -3
    endloop
  endfacet
  facet normal 0 0 1
    outer loop
      vertex -4.75 27 -3
      vertex -9.48873 22.9847 -3
      vertex -9.25 22.25 -3
    endloop
  endfacet
  facet normal 0 0 1
    outer loop
      vertex -10.1137 23.4388 -3
      vertex -4.75 27 -3
      vertex -10.1137 34.0612 -3
    endloop
  endfacet
  facet normal 0 0 1
    outer loop
      vertex -4.75 27 -3
      vertex -10.1137 23.4388 -3
      vertex -9.48873 22.9847 -3
    endloop
  endfacet
  facet normal -0 0 1
    outer loop
      vertex -10.8863 34.0612 -3
      vertex -10.1137 23.4388 -3
      vertex -10.1137 34.0612 -3
    endloop
  endfacet
  facet normal 0 0 1
    outer loop
      vertex -10.8863 34.0612 -3
      vertex -10.8863 23.4388 -3
      vertex -10.1137 23.4388 -3
    endloop
  endfacet
  facet normal 0 0 1
    outer loop
      vertex -15 23.4266 -3
      vertex -10.8863 34.0612 -3
      vertex -11.5113 34.5153 -3
    endloop
  endfacet
  facet normal 0 0 1
    outer loop
      vertex -10.8863 34.0612 -3
      vertex -15 23.4266 -3
      vertex -10.8863 23.4388 -3
    endloop
  endfacet
  facet normal 0 0 1
    outer loop
      vertex -15 39 -3
      vertex -11.5113 34.5153 -3
      vertex -11.75 35.25 -3
    endloop
  endfacet
  facet normal 0 0 1
    outer loop
      vertex -10.8863 23.4388 -3
      vertex -15 23.4266 -3
      vertex -11.5113 22.9847 -3
    endloop
  endfacet
  facet normal -0 0 1
    outer loop
      vertex 10.8863 34.0612 -3
      vertex 15 23.4266 -3
      vertex 11.5113 34.5153 -3
    endloop
  endfacet
  facet normal 0 0 1
    outer loop
      vertex 15 23.4266 -3
      vertex 11.5113 22.9847 -3
      vertex 11.75 22.25 -3
    endloop
  endfacet
  facet normal -0 0 1
    outer loop
      vertex 10.8863 23.4388 -3
      vertex 15 23.4266 -3
      vertex 10.8863 34.0612 -3
    endloop
  endfacet
  facet normal 0 0 1
    outer loop
      vertex 15 23.4266 -3
      vertex 10.8863 23.4388 -3
      vertex 11.5113 22.9847 -3
    endloop
  endfacet
  facet normal -0 0 1
    outer loop
      vertex 10.1137 34.0612 -3
      vertex 10.8863 23.4388 -3
      vertex 10.8863 34.0612 -3
    endloop
  endfacet
  facet normal 0 0 1
    outer loop
      vertex 10.1137 34.0612 -3
      vertex 10.1137 23.4388 -3
      vertex 10.8863 23.4388 -3
    endloop
  endfacet
  facet normal 0 0 1
    outer loop
      vertex 4.75 27 -3
      vertex 10.1137 34.0612 -3
      vertex 9.48873 34.5153 -3
    endloop
  endfacet
  facet normal 0 0 1
    outer loop
      vertex 10.1137 34.0612 -3
      vertex 4.75 27 -3
      vertex 10.1137 23.4388 -3
    endloop
  endfacet
  facet normal 0 0 1
    outer loop
      vertex 4.75 27 -3
      vertex 9.48873 34.5153 -3
      vertex 9.25 35.25 -3
    endloop
  endfacet
  facet normal 0 0 1
    outer loop
      vertex 10.1137 23.4388 -3
      vertex 4.75 27 -3
      vertex 9.48873 22.9847 -3
    endloop
  endfacet
  facet normal 0 0 1
    outer loop
      vertex 11.5113 34.5153 -3
      vertex 15 39 -3
      vertex 11.75 35.25 -3
    endloop
  endfacet
  facet normal 0 0 1
    outer loop
      vertex 15 39 -3
      vertex 11.5113 34.5153 -3
      vertex 15 23.4266 -3
    endloop
  endfacet
  facet normal 0 0 1
    outer loop
      vertex 15 23.4266 -3
      vertex 11.75 22.25 -3
      vertex 15 20.5734 -3
    endloop
  endfacet
  facet normal 0 0 1
    outer loop
      vertex 15 39 -3
      vertex 11.5113 35.9847 -3
      vertex 11.75 35.25 -3
    endloop
  endfacet
  facet normal 0 0 1
    outer loop
      vertex 15 39 -3
      vertex 10.8863 36.4388 -3
      vertex 11.5113 35.9847 -3
    endloop
  endfacet
  facet normal 0 0 1
    outer loop
      vertex 15 39 -3
      vertex 10.1137 36.4388 -3
      vertex 10.8863 36.4388 -3
    endloop
  endfacet
  facet normal 0 0 1
    outer loop
      vertex 9.48873 22.9847 -3
      vertex 4.75 27 -3
      vertex 9.25 22.25 -3
    endloop
  endfacet
  facet normal 0 0 1
    outer loop
      vertex -9.25 35.25 -3
      vertex 9.25 35.25 -3
      vertex 9.48873 35.9847 -3
    endloop
  endfacet
  facet normal 0 0 1
    outer loop
      vertex 9.25 35.25 -3
      vertex -9.25 35.25 -3
      vertex 4.75 27 -3
    endloop
  endfacet
  facet normal 0 0 1
    outer loop
      vertex -9.48873 35.9847 -3
      vertex 9.48873 35.9847 -3
      vertex 10.1137 36.4388 -3
    endloop
  endfacet
  facet normal -0 0 1
    outer loop
      vertex -9.48873 34.5153 -3
      vertex -4.75 27 -3
      vertex -9.25 35.25 -3
    endloop
  endfacet
  facet normal 0 0 1
    outer loop
      vertex 4.75 27 -3
      vertex -9.25 35.25 -3
      vertex -4.75 27 -3
    endloop
  endfacet
  facet normal 0 0 1
    outer loop
      vertex -10.1137 36.4388 -3
      vertex 10.1137 36.4388 -3
      vertex 15 39 -3
    endloop
  endfacet
  facet normal 0 0 1
    outer loop
      vertex 9.48873 35.9847 -3
      vertex -9.48873 35.9847 -3
      vertex -9.25 35.25 -3
    endloop
  endfacet
  facet normal 0 0 1
    outer loop
      vertex 10.1137 36.4388 -3
      vertex -10.1137 36.4388 -3
      vertex -9.48873 35.9847 -3
    endloop
  endfacet
  facet normal -0 0 1
    outer loop
      vertex -15 39 -3
      vertex -10.1137 36.4388 -3
      vertex 15 39 -3
    endloop
  endfacet
  facet normal 0 0 1
    outer loop
      vertex -11.5113 34.5153 -3
      vertex -15 39 -3
      vertex -15 23.4266 -3
    endloop
  endfacet
  facet normal 0 0 1
    outer loop
      vertex -11.5113 35.9847 -3
      vertex -15 39 -3
      vertex -11.75 35.25 -3
    endloop
  endfacet
  facet normal 0 0 1
    outer loop
      vertex -10.8863 36.4388 -3
      vertex -15 39 -3
      vertex -11.5113 35.9847 -3
    endloop
  endfacet
  facet normal 0 0 1
    outer loop
      vertex -10.1137 36.4388 -3
      vertex -15 39 -3
      vertex -10.8863 36.4388 -3
    endloop
  endfacet
  facet normal -0 0 1
    outer loop
      vertex 11.5113 21.5153 -3
      vertex 15 20.5734 -3
      vertex 11.75 22.25 -3
    endloop
  endfacet
  facet normal -0 0 1
    outer loop
      vertex 10.8863 21.0612 -3
      vertex 15 20.5734 -3
      vertex 11.5113 21.5153 -3
    endloop
  endfacet
  facet normal 0 0 1
    outer loop
      vertex 4.75 17.5 -3
      vertex 15 20.5734 -3
      vertex 10.8863 21.0612 -3
    endloop
  endfacet
  facet normal 0 0 1
    outer loop
      vertex 4.75 17.5 -3
      vertex 10.8863 21.0612 -3
      vertex 10.1137 21.0612 -3
    endloop
  endfacet
  facet normal 0 0 1
    outer loop
      vertex 4.75 17.5 -3
      vertex 10.1137 21.0612 -3
      vertex 9.48873 21.5153 -3
    endloop
  endfacet
  facet normal 0 0 1
    outer loop
      vertex 4.75 17.5 -3
      vertex 9.48873 21.5153 -3
      vertex 9.25 22.25 -3
    endloop
  endfacet
  facet normal 0 0 1
    outer loop
      vertex 4.75 17.5 -3
      vertex 9.25 22.25 -3
      vertex 4.75 27 -3
    endloop
  endfacet
  facet normal 0 0 1
    outer loop
      vertex 15 20.5734 -3
      vertex 4.75 17.5 -3
      vertex 15 3 -3
    endloop
  endfacet
  facet normal -0 0 1
    outer loop
      vertex -4.75 17.5 -3
      vertex 15 3 -3
      vertex 4.75 17.5 -3
    endloop
  endfacet
  facet normal 0 0 1
    outer loop
      vertex -4.75 27 -3
      vertex -9.25 22.25 -3
      vertex -4.75 17.5 -3
    endloop
  endfacet
  facet normal -0 0 1
    outer loop
      vertex -9.48873 21.5153 -3
      vertex -4.75 17.5 -3
      vertex -9.25 22.25 -3
    endloop
  endfacet
  facet normal -0 0 1
    outer loop
      vertex -10.1137 21.0612 -3
      vertex -4.75 17.5 -3
      vertex -9.48873 21.5153 -3
    endloop
  endfacet
  facet normal -0 0 1
    outer loop
      vertex -10.8863 21.0612 -3
      vertex -4.75 17.5 -3
      vertex -10.1137 21.0612 -3
    endloop
  endfacet
  facet normal -0 0 1
    outer loop
      vertex -15 20.5734 -3
      vertex -4.75 17.5 -3
      vertex -10.8863 21.0612 -3
    endloop
  endfacet
  facet normal 0 0 1
    outer loop
      vertex -11.5113 22.9847 -3
      vertex -15 23.4266 -3
      vertex -11.75 22.25 -3
    endloop
  endfacet
  facet normal 0 0 1
    outer loop
      vertex -15 20.5734 -3
      vertex -11.75 22.25 -3
      vertex -15 23.4266 -3
    endloop
  endfacet
  facet normal 0 0 1
    outer loop
      vertex -11.75 22.25 -3
      vertex -15 20.5734 -3
      vertex -11.5113 21.5153 -3
    endloop
  endfacet
  facet normal 0 0 1
    outer loop
      vertex -11.5113 21.5153 -3
      vertex -15 20.5734 -3
      vertex -10.8863 21.0612 -3
    endloop
  endfacet
  facet normal 0 0 1
    outer loop
      vertex -4.75 17.5 -3
      vertex -15 20.5734 -3
      vertex -15 3 -3
    endloop
  endfacet
  facet normal 0 0 1
    outer loop
      vertex -4.75 17.5 -3
      vertex -15 3 -3
      vertex 15 3 -3
    endloop
  endfacet
  facet normal 0 -1 0
    outer loop
      vertex -15 39 -3
      vertex 15 39 0
      vertex -15 39 0
    endloop
  endfacet
  facet normal 0 -1 -0
    outer loop
      vertex 15 39 0
      vertex -15 39 -3
      vertex 15 39 -3
    endloop
  endfacet
endsolid OpenSCAD_Model
