solid OpenSCAD_Model
  facet normal -0.991445 -0.130526 -0
    outer loop
      vertex 11.8637 -30.9647 4
      vertex 11.8637 -30.9647 0
      vertex 12 -32 4
    endloop
  endfacet
  facet normal -0.991445 -0.130526 -0
    outer loop
      vertex 12 -32 4
      vertex 11.8637 -30.9647 0
      vertex 12 -32 0
    endloop
  endfacet
  facet normal -0.991445 0.130526 0
    outer loop
      vertex 12 -32 4
      vertex 12 -32 0
      vertex 11.8637 -33.0353 4
    endloop
  endfacet
  facet normal -0.991445 0.130526 0
    outer loop
      vertex 11.8637 -33.0353 4
      vertex 12 -32 0
      vertex 11.8637 -33.0353 0
    endloop
  endfacet
  facet normal -0.923877 0.38269 0
    outer loop
      vertex 11.8637 -33.0353 4
      vertex 11.8637 -33.0353 0
      vertex 11.4641 -34 4
    endloop
  endfacet
  facet normal -0.923877 0.38269 0
    outer loop
      vertex 11.4641 -34 4
      vertex 11.8637 -33.0353 0
      vertex 11.4641 -34 0
    endloop
  endfacet
  facet normal -0.793332 0.608789 0
    outer loop
      vertex 11.4641 -34 4
      vertex 11.4641 -34 0
      vertex 10.8284 -34.8284 4
    endloop
  endfacet
  facet normal -0.793332 0.608789 0
    outer loop
      vertex 10.8284 -34.8284 4
      vertex 11.4641 -34 0
      vertex 10.8284 -34.8284 0
    endloop
  endfacet
  facet normal -0.608789 0.793332 0
    outer loop
      vertex 10.8284 -34.8284 4
      vertex 10.8284 -34.8284 0
      vertex 10 -35.4641 4
    endloop
  endfacet
  facet normal -0.608789 0.793332 0
    outer loop
      vertex 10 -35.4641 4
      vertex 10.8284 -34.8284 0
      vertex 10 -35.4641 0
    endloop
  endfacet
  facet normal -0.382683 0.92388 0
    outer loop
      vertex 10 -35.4641 4
      vertex 10 -35.4641 0
      vertex 9.03528 -35.8637 4
    endloop
  endfacet
  facet normal -0.382683 0.92388 0
    outer loop
      vertex 9.03528 -35.8637 4
      vertex 10 -35.4641 0
      vertex 9.03528 -35.8637 0
    endloop
  endfacet
  facet normal -0.130529 0.991445 0
    outer loop
      vertex 9.03528 -35.8637 4
      vertex 9.03528 -35.8637 0
      vertex 8 -36 4
    endloop
  endfacet
  facet normal -0.130529 0.991445 0
    outer loop
      vertex 8 -36 4
      vertex 9.03528 -35.8637 0
      vertex 8 -36 0
    endloop
  endfacet
  facet normal 0.130529 0.991445 0
    outer loop
      vertex 8 -36 4
      vertex 8 -36 0
      vertex 6.96472 -35.8637 4
    endloop
  endfacet
  facet normal 0.130529 0.991445 0
    outer loop
      vertex 6.96472 -35.8637 4
      vertex 8 -36 0
      vertex 6.96472 -35.8637 0
    endloop
  endfacet
  facet normal 0.382683 0.92388 0
    outer loop
      vertex 6.96472 -35.8637 4
      vertex 6.96472 -35.8637 0
      vertex 6 -35.4641 4
    endloop
  endfacet
  facet normal 0.382683 0.92388 0
    outer loop
      vertex 6 -35.4641 4
      vertex 6.96472 -35.8637 0
      vertex 6 -35.4641 0
    endloop
  endfacet
  facet normal 0.608775 0.793343 0
    outer loop
      vertex 6 -35.4641 4
      vertex 6 -35.4641 0
      vertex 5.17157 -34.8284 4
    endloop
  endfacet
  facet normal 0.608775 0.793343 0
    outer loop
      vertex 5.17157 -34.8284 4
      vertex 6 -35.4641 0
      vertex 5.17157 -34.8284 0
    endloop
  endfacet
  facet normal 0.793346 0.608771 0
    outer loop
      vertex 5.17157 -34.8284 4
      vertex 5.17157 -34.8284 0
      vertex 4.5359 -34 4
    endloop
  endfacet
  facet normal 0.793346 0.608771 0
    outer loop
      vertex 4.5359 -34 4
      vertex 5.17157 -34.8284 0
      vertex 4.5359 -34 0
    endloop
  endfacet
  facet normal 0.923877 0.38269 0
    outer loop
      vertex 4.5359 -34 4
      vertex 4.5359 -34 0
      vertex 4.1363 -33.0353 4
    endloop
  endfacet
  facet normal 0.923877 0.38269 0
    outer loop
      vertex 4.1363 -33.0353 4
      vertex 4.5359 -34 0
      vertex 4.1363 -33.0353 0
    endloop
  endfacet
  facet normal 0.991445 0.130526 0
    outer loop
      vertex 4.1363 -33.0353 4
      vertex 4.1363 -33.0353 0
      vertex 4 -32 4
    endloop
  endfacet
  facet normal 0.991445 0.130526 0
    outer loop
      vertex 4 -32 4
      vertex 4.1363 -33.0353 0
      vertex 4 -32 0
    endloop
  endfacet
  facet normal 0.991445 -0.130526 0
    outer loop
      vertex 4 -32 4
      vertex 4 -32 0
      vertex 4.1363 -30.9647 4
    endloop
  endfacet
  facet normal 0.991445 -0.130526 0
    outer loop
      vertex 4.1363 -30.9647 4
      vertex 4 -32 0
      vertex 4.1363 -30.9647 0
    endloop
  endfacet
  facet normal 0.923877 -0.38269 0
    outer loop
      vertex 4.1363 -30.9647 4
      vertex 4.1363 -30.9647 0
      vertex 4.5359 -30 4
    endloop
  endfacet
  facet normal 0.923877 -0.38269 0
    outer loop
      vertex 4.5359 -30 4
      vertex 4.1363 -30.9647 0
      vertex 4.5359 -30 0
    endloop
  endfacet
  facet normal 0.793346 -0.608771 0
    outer loop
      vertex 4.5359 -30 4
      vertex 4.5359 -30 0
      vertex 5.17157 -29.1716 4
    endloop
  endfacet
  facet normal 0.793346 -0.608771 0
    outer loop
      vertex 5.17157 -29.1716 4
      vertex 4.5359 -30 0
      vertex 5.17157 -29.1716 0
    endloop
  endfacet
  facet normal 0.608775 -0.793343 0
    outer loop
      vertex 5.17157 -29.1716 4
      vertex 5.17157 -29.1716 0
      vertex 6 -28.5359 4
    endloop
  endfacet
  facet normal 0.608775 -0.793343 0
    outer loop
      vertex 6 -28.5359 4
      vertex 5.17157 -29.1716 0
      vertex 6 -28.5359 0
    endloop
  endfacet
  facet normal 0.382683 -0.92388 0
    outer loop
      vertex 6 -28.5359 4
      vertex 6 -28.5359 0
      vertex 6.96472 -28.1363 4
    endloop
  endfacet
  facet normal 0.382683 -0.92388 0
    outer loop
      vertex 6.96472 -28.1363 4
      vertex 6 -28.5359 0
      vertex 6.96472 -28.1363 0
    endloop
  endfacet
  facet normal 0.130529 -0.991445 0
    outer loop
      vertex 6.96472 -28.1363 4
      vertex 6.96472 -28.1363 0
      vertex 8 -28 4
    endloop
  endfacet
  facet normal 0.130529 -0.991445 0
    outer loop
      vertex 8 -28 4
      vertex 6.96472 -28.1363 0
      vertex 8 -28 0
    endloop
  endfacet
  facet normal -0.130529 -0.991445 -0
    outer loop
      vertex 8 -28 4
      vertex 8 -28 0
      vertex 9.03528 -28.1363 4
    endloop
  endfacet
  facet normal -0.130529 -0.991445 -0
    outer loop
      vertex 9.03528 -28.1363 4
      vertex 8 -28 0
      vertex 9.03528 -28.1363 0
    endloop
  endfacet
  facet normal -0.382683 -0.92388 -0
    outer loop
      vertex 9.03528 -28.1363 4
      vertex 9.03528 -28.1363 0
      vertex 10 -28.5359 4
    endloop
  endfacet
  facet normal -0.382683 -0.92388 -0
    outer loop
      vertex 10 -28.5359 4
      vertex 9.03528 -28.1363 0
      vertex 10 -28.5359 0
    endloop
  endfacet
  facet normal -0.608789 -0.793332 -0
    outer loop
      vertex 10 -28.5359 4
      vertex 10 -28.5359 0
      vertex 10.8284 -29.1716 4
    endloop
  endfacet
  facet normal -0.608789 -0.793332 -0
    outer loop
      vertex 10.8284 -29.1716 4
      vertex 10 -28.5359 0
      vertex 10.8284 -29.1716 0
    endloop
  endfacet
  facet normal -0.793332 -0.608789 -0
    outer loop
      vertex 10.8284 -29.1716 4
      vertex 10.8284 -29.1716 0
      vertex 11.4641 -30 4
    endloop
  endfacet
  facet normal -0.793332 -0.608789 -0
    outer loop
      vertex 11.4641 -30 4
      vertex 10.8284 -29.1716 0
      vertex 11.4641 -30 0
    endloop
  endfacet
  facet normal -0.923877 -0.38269 -0
    outer loop
      vertex 11.4641 -30 4
      vertex 11.4641 -30 0
      vertex 11.8637 -30.9647 4
    endloop
  endfacet
  facet normal -0.923877 -0.38269 -0
    outer loop
      vertex 11.8637 -30.9647 4
      vertex 11.4641 -30 0
      vertex 11.8637 -30.9647 0
    endloop
  endfacet
  facet normal -0.991445 -0.130526 -0
    outer loop
      vertex 11.8637 31.4353 4
      vertex 11.8637 31.4353 0
      vertex 12 30.4 4
    endloop
  endfacet
  facet normal -0.991445 -0.130526 -0
    outer loop
      vertex 12 30.4 4
      vertex 11.8637 31.4353 0
      vertex 12 30.4 0
    endloop
  endfacet
  facet normal -0.991445 0.130526 0
    outer loop
      vertex 12 30.4 4
      vertex 12 30.4 0
      vertex 11.8637 29.3647 4
    endloop
  endfacet
  facet normal -0.991445 0.130526 0
    outer loop
      vertex 11.8637 29.3647 4
      vertex 12 30.4 0
      vertex 11.8637 29.3647 0
    endloop
  endfacet
  facet normal -0.923877 0.38269 0
    outer loop
      vertex 11.8637 29.3647 4
      vertex 11.8637 29.3647 0
      vertex 11.4641 28.4 4
    endloop
  endfacet
  facet normal -0.923877 0.38269 0
    outer loop
      vertex 11.4641 28.4 4
      vertex 11.8637 29.3647 0
      vertex 11.4641 28.4 0
    endloop
  endfacet
  facet normal -0.793332 0.608789 0
    outer loop
      vertex 11.4641 28.4 4
      vertex 11.4641 28.4 0
      vertex 10.8284 27.5716 4
    endloop
  endfacet
  facet normal -0.793332 0.608789 0
    outer loop
      vertex 10.8284 27.5716 4
      vertex 11.4641 28.4 0
      vertex 10.8284 27.5716 0
    endloop
  endfacet
  facet normal -0.608789 0.793332 0
    outer loop
      vertex 10.8284 27.5716 4
      vertex 10.8284 27.5716 0
      vertex 10 26.9359 4
    endloop
  endfacet
  facet normal -0.608789 0.793332 0
    outer loop
      vertex 10 26.9359 4
      vertex 10.8284 27.5716 0
      vertex 10 26.9359 0
    endloop
  endfacet
  facet normal -0.382683 0.92388 0
    outer loop
      vertex 10 26.9359 4
      vertex 10 26.9359 0
      vertex 9.03528 26.5363 4
    endloop
  endfacet
  facet normal -0.382683 0.92388 0
    outer loop
      vertex 9.03528 26.5363 4
      vertex 10 26.9359 0
      vertex 9.03528 26.5363 0
    endloop
  endfacet
  facet normal -0.130529 0.991445 0
    outer loop
      vertex 9.03528 26.5363 4
      vertex 9.03528 26.5363 0
      vertex 8 26.4 4
    endloop
  endfacet
  facet normal -0.130529 0.991445 0
    outer loop
      vertex 8 26.4 4
      vertex 9.03528 26.5363 0
      vertex 8 26.4 0
    endloop
  endfacet
  facet normal 0.130529 0.991445 0
    outer loop
      vertex 8 26.4 4
      vertex 8 26.4 0
      vertex 6.96472 26.5363 4
    endloop
  endfacet
  facet normal 0.130529 0.991445 0
    outer loop
      vertex 6.96472 26.5363 4
      vertex 8 26.4 0
      vertex 6.96472 26.5363 0
    endloop
  endfacet
  facet normal 0.382683 0.92388 0
    outer loop
      vertex 6.96472 26.5363 4
      vertex 6.96472 26.5363 0
      vertex 6 26.9359 4
    endloop
  endfacet
  facet normal 0.382683 0.92388 0
    outer loop
      vertex 6 26.9359 4
      vertex 6.96472 26.5363 0
      vertex 6 26.9359 0
    endloop
  endfacet
  facet normal 0.608775 0.793343 0
    outer loop
      vertex 6 26.9359 4
      vertex 6 26.9359 0
      vertex 5.17157 27.5716 4
    endloop
  endfacet
  facet normal 0.608775 0.793343 0
    outer loop
      vertex 5.17157 27.5716 4
      vertex 6 26.9359 0
      vertex 5.17157 27.5716 0
    endloop
  endfacet
  facet normal 0.793346 0.608771 0
    outer loop
      vertex 5.17157 27.5716 4
      vertex 5.17157 27.5716 0
      vertex 4.5359 28.4 4
    endloop
  endfacet
  facet normal 0.793346 0.608771 0
    outer loop
      vertex 4.5359 28.4 4
      vertex 5.17157 27.5716 0
      vertex 4.5359 28.4 0
    endloop
  endfacet
  facet normal 0.923877 0.38269 0
    outer loop
      vertex 4.5359 28.4 4
      vertex 4.5359 28.4 0
      vertex 4.1363 29.3647 4
    endloop
  endfacet
  facet normal 0.923877 0.38269 0
    outer loop
      vertex 4.1363 29.3647 4
      vertex 4.5359 28.4 0
      vertex 4.1363 29.3647 0
    endloop
  endfacet
  facet normal 0.991445 0.130526 0
    outer loop
      vertex 4.1363 29.3647 4
      vertex 4.1363 29.3647 0
      vertex 4 30.4 4
    endloop
  endfacet
  facet normal 0.991445 0.130526 0
    outer loop
      vertex 4 30.4 4
      vertex 4.1363 29.3647 0
      vertex 4 30.4 0
    endloop
  endfacet
  facet normal 0.991445 -0.130526 0
    outer loop
      vertex 4 30.4 4
      vertex 4 30.4 0
      vertex 4.1363 31.4353 4
    endloop
  endfacet
  facet normal 0.991445 -0.130526 0
    outer loop
      vertex 4.1363 31.4353 4
      vertex 4 30.4 0
      vertex 4.1363 31.4353 0
    endloop
  endfacet
  facet normal 0.923877 -0.38269 0
    outer loop
      vertex 4.1363 31.4353 4
      vertex 4.1363 31.4353 0
      vertex 4.5359 32.4 4
    endloop
  endfacet
  facet normal 0.923877 -0.38269 0
    outer loop
      vertex 4.5359 32.4 4
      vertex 4.1363 31.4353 0
      vertex 4.5359 32.4 0
    endloop
  endfacet
  facet normal 0.793346 -0.608771 0
    outer loop
      vertex 4.5359 32.4 4
      vertex 4.5359 32.4 0
      vertex 5.17157 33.2284 4
    endloop
  endfacet
  facet normal 0.793346 -0.608771 0
    outer loop
      vertex 5.17157 33.2284 4
      vertex 4.5359 32.4 0
      vertex 5.17157 33.2284 0
    endloop
  endfacet
  facet normal 0.608775 -0.793343 0
    outer loop
      vertex 5.17157 33.2284 4
      vertex 5.17157 33.2284 0
      vertex 6 33.8641 4
    endloop
  endfacet
  facet normal 0.608775 -0.793343 0
    outer loop
      vertex 6 33.8641 4
      vertex 5.17157 33.2284 0
      vertex 6 33.8641 0
    endloop
  endfacet
  facet normal 0.382683 -0.92388 0
    outer loop
      vertex 6 33.8641 4
      vertex 6 33.8641 0
      vertex 6.96472 34.2637 4
    endloop
  endfacet
  facet normal 0.382683 -0.92388 0
    outer loop
      vertex 6.96472 34.2637 4
      vertex 6 33.8641 0
      vertex 6.96472 34.2637 0
    endloop
  endfacet
  facet normal 0.130529 -0.991445 0
    outer loop
      vertex 6.96472 34.2637 4
      vertex 6.96472 34.2637 0
      vertex 8 34.4 4
    endloop
  endfacet
  facet normal 0.130529 -0.991445 0
    outer loop
      vertex 8 34.4 4
      vertex 6.96472 34.2637 0
      vertex 8 34.4 0
    endloop
  endfacet
  facet normal -0.130529 -0.991445 -0
    outer loop
      vertex 8 34.4 4
      vertex 8 34.4 0
      vertex 9.03528 34.2637 4
    endloop
  endfacet
  facet normal -0.130529 -0.991445 -0
    outer loop
      vertex 9.03528 34.2637 4
      vertex 8 34.4 0
      vertex 9.03528 34.2637 0
    endloop
  endfacet
  facet normal -0.382683 -0.92388 -0
    outer loop
      vertex 9.03528 34.2637 4
      vertex 9.03528 34.2637 0
      vertex 10 33.8641 4
    endloop
  endfacet
  facet normal -0.382683 -0.92388 -0
    outer loop
      vertex 10 33.8641 4
      vertex 9.03528 34.2637 0
      vertex 10 33.8641 0
    endloop
  endfacet
  facet normal -0.608789 -0.793332 -0
    outer loop
      vertex 10 33.8641 4
      vertex 10 33.8641 0
      vertex 10.8284 33.2284 4
    endloop
  endfacet
  facet normal -0.608789 -0.793332 -0
    outer loop
      vertex 10.8284 33.2284 4
      vertex 10 33.8641 0
      vertex 10.8284 33.2284 0
    endloop
  endfacet
  facet normal -0.793332 -0.608789 -0
    outer loop
      vertex 10.8284 33.2284 4
      vertex 10.8284 33.2284 0
      vertex 11.4641 32.4 4
    endloop
  endfacet
  facet normal -0.793332 -0.608789 -0
    outer loop
      vertex 11.4641 32.4 4
      vertex 10.8284 33.2284 0
      vertex 11.4641 32.4 0
    endloop
  endfacet
  facet normal -0.923877 -0.38269 -0
    outer loop
      vertex 11.4641 32.4 4
      vertex 11.4641 32.4 0
      vertex 11.8637 31.4353 4
    endloop
  endfacet
  facet normal -0.923877 -0.38269 -0
    outer loop
      vertex 11.8637 31.4353 4
      vertex 11.4641 32.4 0
      vertex 11.8637 31.4353 0
    endloop
  endfacet
  facet normal 0 0.130529 -0.991444
    outer loop
      vertex 16.8 38.4 0
      vertex -16.8 38.4 0
      vertex 16.8 38.8141 0.0545187
    endloop
  endfacet
  facet normal 0 0.130529 -0.991444
    outer loop
      vertex 16.8 38.8141 0.0545187
      vertex -16.8 38.4 0
      vertex -16.8 38.8141 0.0545187
    endloop
  endfacet
  facet normal 0 0.382674 -0.923884
    outer loop
      vertex 16.8 38.8141 0.0545187
      vertex -16.8 38.8141 0.0545187
      vertex 16.8 39.2 0.214359
    endloop
  endfacet
  facet normal 0 0.382674 -0.923884
    outer loop
      vertex 16.8 39.2 0.214359
      vertex -16.8 38.8141 0.0545187
      vertex -16.8 39.2 0.214359
    endloop
  endfacet
  facet normal 0 0.608728 -0.793379
    outer loop
      vertex 16.8 39.2 0.214359
      vertex -16.8 39.2 0.214359
      vertex 16.8 39.5314 0.468629
    endloop
  endfacet
  facet normal 0 0.608728 -0.793379
    outer loop
      vertex 16.8 39.5314 0.468629
      vertex -16.8 39.2 0.214359
      vertex -16.8 39.5314 0.468629
    endloop
  endfacet
  facet normal 0 0.793434 -0.608656
    outer loop
      vertex 16.8 39.5314 0.468629
      vertex -16.8 39.5314 0.468629
      vertex 16.8 39.7856 0.8
    endloop
  endfacet
  facet normal 0 0.793434 -0.608656
    outer loop
      vertex 16.8 39.7856 0.8
      vertex -16.8 39.5314 0.468629
      vertex -16.8 39.7856 0.8
    endloop
  endfacet
  facet normal 0 0.923829 -0.382804
    outer loop
      vertex 16.8 39.7856 0.8
      vertex -16.8 39.7856 0.8
      vertex 16.8 39.9455 1.18589
    endloop
  endfacet
  facet normal 0 0.923829 -0.382804
    outer loop
      vertex 16.8 39.9455 1.18589
      vertex -16.8 39.7856 0.8
      vertex -16.8 39.9455 1.18589
    endloop
  endfacet
  facet normal 0 0.991451 -0.130482
    outer loop
      vertex 16.8 39.9455 1.18589
      vertex -16.8 39.9455 1.18589
      vertex 16.8 40 1.6
    endloop
  endfacet
  facet normal 0 0.991451 -0.130482
    outer loop
      vertex 16.8 40 1.6
      vertex -16.8 39.9455 1.18589
      vertex -16.8 40 1.6
    endloop
  endfacet
  facet normal 0 0 -1
    outer loop
      vertex 11.8637 -33.0353 0
      vertex 12 -32 0
      vertex 16.8 -38.4 0
    endloop
  endfacet
  facet normal 0 0 -1
    outer loop
      vertex 16.8 -38.4 0
      vertex 12 -32 0
      vertex 11.8637 -30.9647 0
    endloop
  endfacet
  facet normal 0 0 -1
    outer loop
      vertex 16.8 -38.4 0
      vertex 11.8637 -30.9647 0
      vertex 11.4641 -30 0
    endloop
  endfacet
  facet normal 0 0 -1
    outer loop
      vertex 10.8284 -29.1716 0
      vertex 10.8284 27.5716 0
      vertex 11.4641 -30 0
    endloop
  endfacet
  facet normal 0 0 -1
    outer loop
      vertex 11.4641 -30 0
      vertex 10.8284 27.5716 0
      vertex 11.4641 28.4 0
    endloop
  endfacet
  facet normal 0 0 -1
    outer loop
      vertex 11.4641 -30 0
      vertex 11.4641 28.4 0
      vertex 16.8 -38.4 0
    endloop
  endfacet
  facet normal 0 0 -1
    outer loop
      vertex 16.8 -38.4 0
      vertex 11.4641 28.4 0
      vertex 11.8637 29.3647 0
    endloop
  endfacet
  facet normal 0 0 -1
    outer loop
      vertex 16.8 -38.4 0
      vertex 11.8637 29.3647 0
      vertex 16.8 38.4 0
    endloop
  endfacet
  facet normal 0 0 -1
    outer loop
      vertex 16.8 38.4 0
      vertex 11.8637 29.3647 0
      vertex 12 30.4 0
    endloop
  endfacet
  facet normal 0 0 -1
    outer loop
      vertex 16.8 38.4 0
      vertex 12 30.4 0
      vertex 11.8637 31.4353 0
    endloop
  endfacet
  facet normal 0 -0 -1
    outer loop
      vertex 10.8284 27.5716 0
      vertex 10.8284 -29.1716 0
      vertex 10 26.9359 0
    endloop
  endfacet
  facet normal 0 0 -1
    outer loop
      vertex 10 26.9359 0
      vertex 10.8284 -29.1716 0
      vertex 10 -28.5359 0
    endloop
  endfacet
  facet normal 0 -0 -1
    outer loop
      vertex 10 26.9359 0
      vertex 10 -28.5359 0
      vertex 9.03528 26.5363 0
    endloop
  endfacet
  facet normal 0 0 -1
    outer loop
      vertex 9.03528 26.5363 0
      vertex 10 -28.5359 0
      vertex 9.03528 -28.1363 0
    endloop
  endfacet
  facet normal 0 -0 -1
    outer loop
      vertex 9.03528 26.5363 0
      vertex 9.03528 -28.1363 0
      vertex 8 26.4 0
    endloop
  endfacet
  facet normal 0 0 -1
    outer loop
      vertex 8 26.4 0
      vertex 9.03528 -28.1363 0
      vertex 8 -28 0
    endloop
  endfacet
  facet normal -0 -0 -1
    outer loop
      vertex 8 26.4 0
      vertex 8 -28 0
      vertex 6.96472 26.5363 0
    endloop
  endfacet
  facet normal 0 0 -1
    outer loop
      vertex 6.96472 26.5363 0
      vertex 8 -28 0
      vertex 6.96472 -28.1363 0
    endloop
  endfacet
  facet normal -0 -0 -1
    outer loop
      vertex 6.96472 26.5363 0
      vertex 6.96472 -28.1363 0
      vertex 6 26.9359 0
    endloop
  endfacet
  facet normal 0 0 -1
    outer loop
      vertex 6 26.9359 0
      vertex 6.96472 -28.1363 0
      vertex 6 -28.5359 0
    endloop
  endfacet
  facet normal -0 -0 -1
    outer loop
      vertex 6 26.9359 0
      vertex 6 -28.5359 0
      vertex 5.17157 27.5716 0
    endloop
  endfacet
  facet normal 0 0 -1
    outer loop
      vertex 5.17157 27.5716 0
      vertex 6 -28.5359 0
      vertex 5.17157 -29.1716 0
    endloop
  endfacet
  facet normal -0 -0 -1
    outer loop
      vertex 5.17157 27.5716 0
      vertex 5.17157 -29.1716 0
      vertex 4.5359 28.4 0
    endloop
  endfacet
  facet normal 0 0 -1
    outer loop
      vertex 4.5359 28.4 0
      vertex 5.17157 -29.1716 0
      vertex 4.5359 -30 0
    endloop
  endfacet
  facet normal 0 -0 -1
    outer loop
      vertex 4.5359 28.4 0
      vertex 4.5359 -30 0
      vertex -16.8 -38.4 0
    endloop
  endfacet
  facet normal 0 0 -1
    outer loop
      vertex -16.8 -38.4 0
      vertex 4.5359 -30 0
      vertex 4.1363 -30.9647 0
    endloop
  endfacet
  facet normal 0 0 -1
    outer loop
      vertex -16.8 -38.4 0
      vertex 4.1363 -30.9647 0
      vertex 4 -32 0
    endloop
  endfacet
  facet normal 0 -0 -1
    outer loop
      vertex 4 -32 0
      vertex 4.1363 -33.0353 0
      vertex -16.8 -38.4 0
    endloop
  endfacet
  facet normal 0 0 -1
    outer loop
      vertex -16.8 -38.4 0
      vertex 4.1363 -33.0353 0
      vertex 4.5359 -34 0
    endloop
  endfacet
  facet normal 0 0 -1
    outer loop
      vertex -16.8 -38.4 0
      vertex 4.5359 -34 0
      vertex 5.17157 -34.8284 0
    endloop
  endfacet
  facet normal 0 -0 -1
    outer loop
      vertex 5.17157 -34.8284 0
      vertex 6 -35.4641 0
      vertex -16.8 -38.4 0
    endloop
  endfacet
  facet normal 0 0 -1
    outer loop
      vertex -16.8 -38.4 0
      vertex 6 -35.4641 0
      vertex 6.96472 -35.8637 0
    endloop
  endfacet
  facet normal 0 0 -1
    outer loop
      vertex -16.8 -38.4 0
      vertex 6.96472 -35.8637 0
      vertex 16.8 -38.4 0
    endloop
  endfacet
  facet normal 0 0 -1
    outer loop
      vertex 16.8 -38.4 0
      vertex 6.96472 -35.8637 0
      vertex 8 -36 0
    endloop
  endfacet
  facet normal 0 0 -1
    outer loop
      vertex 16.8 -38.4 0
      vertex 8 -36 0
      vertex 9.03528 -35.8637 0
    endloop
  endfacet
  facet normal 0 0 -1
    outer loop
      vertex 9.03528 -35.8637 0
      vertex 10 -35.4641 0
      vertex 16.8 -38.4 0
    endloop
  endfacet
  facet normal 0 0 -1
    outer loop
      vertex 16.8 -38.4 0
      vertex 10 -35.4641 0
      vertex 10.8284 -34.8284 0
    endloop
  endfacet
  facet normal 0 0 -1
    outer loop
      vertex 16.8 -38.4 0
      vertex 10.8284 -34.8284 0
      vertex 11.4641 -34 0
    endloop
  endfacet
  facet normal 0 0 -1
    outer loop
      vertex 11.4641 -34 0
      vertex 11.8637 -33.0353 0
      vertex 16.8 -38.4 0
    endloop
  endfacet
  facet normal 0 0 -1
    outer loop
      vertex 11.8637 31.4353 0
      vertex 11.4641 32.4 0
      vertex 16.8 38.4 0
    endloop
  endfacet
  facet normal 0 0 -1
    outer loop
      vertex 16.8 38.4 0
      vertex 11.4641 32.4 0
      vertex 10.8284 33.2284 0
    endloop
  endfacet
  facet normal 0 0 -1
    outer loop
      vertex 16.8 38.4 0
      vertex 10.8284 33.2284 0
      vertex 10 33.8641 0
    endloop
  endfacet
  facet normal 0 0 -1
    outer loop
      vertex 10 33.8641 0
      vertex 9.03528 34.2637 0
      vertex 16.8 38.4 0
    endloop
  endfacet
  facet normal 0 0 -1
    outer loop
      vertex 16.8 38.4 0
      vertex 9.03528 34.2637 0
      vertex 8 34.4 0
    endloop
  endfacet
  facet normal 0 0 -1
    outer loop
      vertex 16.8 38.4 0
      vertex 8 34.4 0
      vertex 6.96472 34.2637 0
    endloop
  endfacet
  facet normal -0 0 -1
    outer loop
      vertex 16.8 38.4 0
      vertex 6.96472 34.2637 0
      vertex -16.8 38.4 0
    endloop
  endfacet
  facet normal 0 0 -1
    outer loop
      vertex -16.8 38.4 0
      vertex 6.96472 34.2637 0
      vertex 6 33.8641 0
    endloop
  endfacet
  facet normal 0 0 -1
    outer loop
      vertex -16.8 38.4 0
      vertex 6 33.8641 0
      vertex 5.17157 33.2284 0
    endloop
  endfacet
  facet normal -0 0 -1
    outer loop
      vertex 5.17157 33.2284 0
      vertex 4.5359 32.4 0
      vertex -16.8 38.4 0
    endloop
  endfacet
  facet normal 0 0 -1
    outer loop
      vertex -16.8 38.4 0
      vertex 4.5359 32.4 0
      vertex 4.1363 31.4353 0
    endloop
  endfacet
  facet normal 0 0 -1
    outer loop
      vertex -16.8 38.4 0
      vertex 4.1363 31.4353 0
      vertex 4 30.4 0
    endloop
  endfacet
  facet normal -0 -0 -1
    outer loop
      vertex 4 30.4 0
      vertex 4.1363 29.3647 0
      vertex -16.8 38.4 0
    endloop
  endfacet
  facet normal 0 0 -1
    outer loop
      vertex -16.8 38.4 0
      vertex 4.1363 29.3647 0
      vertex -16.8 -38.4 0
    endloop
  endfacet
  facet normal 0 0 -1
    outer loop
      vertex -16.8 -38.4 0
      vertex 4.1363 29.3647 0
      vertex 4.5359 28.4 0
    endloop
  endfacet
  facet normal 1 0 -0
    outer loop
      vertex 16.8 38.8141 0.0545187
      vertex 16.8 39.2 0.214359
      vertex 16.8 38.4 0
    endloop
  endfacet
  facet normal 1 0 0
    outer loop
      vertex 16.8 38.4 0
      vertex 16.8 39.2 0.214359
      vertex 16.8 39.5314 0.468629
    endloop
  endfacet
  facet normal 1 0 0
    outer loop
      vertex 16.8 38.4 0
      vertex 16.8 39.5314 0.468629
      vertex 16.8 39.7856 0.8
    endloop
  endfacet
  facet normal 1 0 0
    outer loop
      vertex 16.8 39.9455 1.18589
      vertex 16.8 -39.9455 1.18589
      vertex 16.8 39.7856 0.8
    endloop
  endfacet
  facet normal 1 0 0
    outer loop
      vertex 16.8 39.7856 0.8
      vertex 16.8 -39.9455 1.18589
      vertex 16.8 -39.7856 0.8
    endloop
  endfacet
  facet normal 1 0 0
    outer loop
      vertex 16.8 39.7856 0.8
      vertex 16.8 -39.7856 0.8
      vertex 16.8 38.4 0
    endloop
  endfacet
  facet normal 1 0 0
    outer loop
      vertex 16.8 38.4 0
      vertex 16.8 -39.7856 0.8
      vertex 16.8 -38.4 0
    endloop
  endfacet
  facet normal 1 0 0
    outer loop
      vertex 16.8 -38.4 0
      vertex 16.8 -39.7856 0.8
      vertex 16.8 -39.5314 0.468629
    endloop
  endfacet
  facet normal 1 0 0
    outer loop
      vertex 16.8 -38.4 0
      vertex 16.8 -39.5314 0.468629
      vertex 16.8 -39.2 0.214359
    endloop
  endfacet
  facet normal 1 0 -0
    outer loop
      vertex 16.8 -39.9455 1.18589
      vertex 16.8 39.9455 1.18589
      vertex 16.8 -40 1.6
    endloop
  endfacet
  facet normal 1 -0 0
    outer loop
      vertex 16.8 -40 1.6
      vertex 16.8 39.9455 1.18589
      vertex 16.8 40 1.6
    endloop
  endfacet
  facet normal 1 0 0
    outer loop
      vertex 16.8 -40 1.6
      vertex 16.8 40 1.6
      vertex 16.8 -40 4
    endloop
  endfacet
  facet normal 1 -0 0
    outer loop
      vertex 16.8 -40 4
      vertex 16.8 40 1.6
      vertex 16.8 40 4
    endloop
  endfacet
  facet normal 1 0 0
    outer loop
      vertex 16.8 -39.2 0.214359
      vertex 16.8 -38.8141 0.0545187
      vertex 16.8 -38.4 0
    endloop
  endfacet
  facet normal 0 -0.130529 -0.991444
    outer loop
      vertex -16.8 -38.4 0
      vertex 16.8 -38.4 0
      vertex -16.8 -38.8141 0.0545187
    endloop
  endfacet
  facet normal 0 -0.130529 -0.991444
    outer loop
      vertex -16.8 -38.8141 0.0545187
      vertex 16.8 -38.4 0
      vertex 16.8 -38.8141 0.0545187
    endloop
  endfacet
  facet normal 0 -0.382674 -0.923884
    outer loop
      vertex -16.8 -38.8141 0.0545187
      vertex 16.8 -38.8141 0.0545187
      vertex -16.8 -39.2 0.214359
    endloop
  endfacet
  facet normal 0 -0.382674 -0.923884
    outer loop
      vertex -16.8 -39.2 0.214359
      vertex 16.8 -38.8141 0.0545187
      vertex 16.8 -39.2 0.214359
    endloop
  endfacet
  facet normal 0 -0.608728 -0.793379
    outer loop
      vertex -16.8 -39.2 0.214359
      vertex 16.8 -39.2 0.214359
      vertex -16.8 -39.5314 0.468629
    endloop
  endfacet
  facet normal 0 -0.608728 -0.793379
    outer loop
      vertex -16.8 -39.5314 0.468629
      vertex 16.8 -39.2 0.214359
      vertex 16.8 -39.5314 0.468629
    endloop
  endfacet
  facet normal 0 -0.793434 -0.608656
    outer loop
      vertex -16.8 -39.5314 0.468629
      vertex 16.8 -39.5314 0.468629
      vertex -16.8 -39.7856 0.8
    endloop
  endfacet
  facet normal 0 -0.793434 -0.608656
    outer loop
      vertex -16.8 -39.7856 0.8
      vertex 16.8 -39.5314 0.468629
      vertex 16.8 -39.7856 0.8
    endloop
  endfacet
  facet normal 0 -0.923829 -0.382804
    outer loop
      vertex -16.8 -39.7856 0.8
      vertex 16.8 -39.7856 0.8
      vertex -16.8 -39.9455 1.18589
    endloop
  endfacet
  facet normal 0 -0.923829 -0.382804
    outer loop
      vertex -16.8 -39.9455 1.18589
      vertex 16.8 -39.7856 0.8
      vertex 16.8 -39.9455 1.18589
    endloop
  endfacet
  facet normal 0 -0.991451 -0.130482
    outer loop
      vertex -16.8 -39.9455 1.18589
      vertex 16.8 -39.9455 1.18589
      vertex -16.8 -40 1.6
    endloop
  endfacet
  facet normal 0 -0.991451 -0.130482
    outer loop
      vertex -16.8 -40 1.6
      vertex 16.8 -39.9455 1.18589
      vertex 16.8 -40 1.6
    endloop
  endfacet
  facet normal 0 -1 0
    outer loop
      vertex -16.8 -40 1.6
      vertex 16.8 -40 1.6
      vertex -16.8 -40 4
    endloop
  endfacet
  facet normal 0 -1 0
    outer loop
      vertex -16.8 -40 4
      vertex 16.8 -40 1.6
      vertex 16.8 -40 4
    endloop
  endfacet
  facet normal -0.991443 -0.130539 -0
    outer loop
      vertex -2 -32 12
      vertex -2 -32 4
      vertex -1.93185 -32.5176 12
    endloop
  endfacet
  facet normal -0.991443 -0.130539 -0
    outer loop
      vertex -1.93185 -32.5176 12
      vertex -2 -32 4
      vertex -1.93185 -32.5176 4
    endloop
  endfacet
  facet normal -0.923891 -0.382656 -0
    outer loop
      vertex -1.93185 -32.5176 12
      vertex -1.93185 -32.5176 4
      vertex -1.73205 -33 12
    endloop
  endfacet
  facet normal -0.923891 -0.382656 -0
    outer loop
      vertex -1.73205 -33 12
      vertex -1.93185 -32.5176 4
      vertex -1.73205 -33 4
    endloop
  endfacet
  facet normal -0.793341 -0.608777 -0
    outer loop
      vertex -1.73205 -33 12
      vertex -1.73205 -33 4
      vertex -1.41421 -33.4142 12
    endloop
  endfacet
  facet normal -0.793341 -0.608777 -0
    outer loop
      vertex -1.41421 -33.4142 12
      vertex -1.73205 -33 4
      vertex -1.41421 -33.4142 4
    endloop
  endfacet
  facet normal -0.60884 -0.793293 -0
    outer loop
      vertex -1.41421 -33.4142 12
      vertex -1.41421 -33.4142 4
      vertex -1 -33.7321 12
    endloop
  endfacet
  facet normal -0.60884 -0.793293 -0
    outer loop
      vertex -1 -33.7321 12
      vertex -1.41421 -33.4142 4
      vertex -1 -33.7321 4
    endloop
  endfacet
  facet normal -0.382682 -0.92388 -0
    outer loop
      vertex -1 -33.7321 12
      vertex -1 -33.7321 4
      vertex -0.517638 -33.9319 12
    endloop
  endfacet
  facet normal -0.382682 -0.92388 -0
    outer loop
      vertex -0.517638 -33.9319 12
      vertex -1 -33.7321 4
      vertex -0.517638 -33.9319 4
    endloop
  endfacet
  facet normal -0.130435 -0.991457 -0
    outer loop
      vertex -0.517638 -33.9319 12
      vertex -0.517638 -33.9319 4
      vertex -1.22465e-16 -34 12
    endloop
  endfacet
  facet normal -0.130435 -0.991457 -0
    outer loop
      vertex -1.22465e-16 -34 12
      vertex -0.517638 -33.9319 4
      vertex -1.22465e-16 -34 4
    endloop
  endfacet
  facet normal 0.130435 -0.991457 0
    outer loop
      vertex -1.22465e-16 -34 12
      vertex -1.22465e-16 -34 4
      vertex 0.517638 -33.9319 12
    endloop
  endfacet
  facet normal 0.130435 -0.991457 0
    outer loop
      vertex 0.517638 -33.9319 12
      vertex -1.22465e-16 -34 4
      vertex 0.517638 -33.9319 4
    endloop
  endfacet
  facet normal 0.382682 -0.92388 0
    outer loop
      vertex 0.517638 -33.9319 12
      vertex 0.517638 -33.9319 4
      vertex 1 -33.7321 12
    endloop
  endfacet
  facet normal 0.382682 -0.92388 0
    outer loop
      vertex 1 -33.7321 12
      vertex 0.517638 -33.9319 4
      vertex 1 -33.7321 4
    endloop
  endfacet
  facet normal 0.60884 -0.793293 0
    outer loop
      vertex 1 -33.7321 12
      vertex 1 -33.7321 4
      vertex 1.41421 -33.4142 12
    endloop
  endfacet
  facet normal 0.60884 -0.793293 0
    outer loop
      vertex 1.41421 -33.4142 12
      vertex 1 -33.7321 4
      vertex 1.41421 -33.4142 4
    endloop
  endfacet
  facet normal 0.793341 -0.608777 0
    outer loop
      vertex 1.41421 -33.4142 12
      vertex 1.41421 -33.4142 4
      vertex 1.73205 -33 12
    endloop
  endfacet
  facet normal 0.793341 -0.608777 0
    outer loop
      vertex 1.73205 -33 12
      vertex 1.41421 -33.4142 4
      vertex 1.73205 -33 4
    endloop
  endfacet
  facet normal 0.923891 -0.382656 0
    outer loop
      vertex 1.73205 -33 12
      vertex 1.73205 -33 4
      vertex 1.93185 -32.5176 12
    endloop
  endfacet
  facet normal 0.923891 -0.382656 0
    outer loop
      vertex 1.93185 -32.5176 12
      vertex 1.73205 -33 4
      vertex 1.93185 -32.5176 4
    endloop
  endfacet
  facet normal 0.991443 -0.130539 0
    outer loop
      vertex 1.93185 -32.5176 12
      vertex 1.93185 -32.5176 4
      vertex 2 -32 12
    endloop
  endfacet
  facet normal 0.991443 -0.130539 0
    outer loop
      vertex 2 -32 12
      vertex 1.93185 -32.5176 4
      vertex 2 -32 4
    endloop
  endfacet
  facet normal -1 0 0
    outer loop
      vertex -2 -16 4
      vertex -2 -32 4
      vertex -2 -16 12
    endloop
  endfacet
  facet normal -1 -0 0
    outer loop
      vertex -2 -16 12
      vertex -2 -32 4
      vertex -2 -32 12
    endloop
  endfacet
  facet normal 0.991443 0.130539 0
    outer loop
      vertex 2 -16 12
      vertex 2 -16 4
      vertex 1.93185 -15.4824 12
    endloop
  endfacet
  facet normal 0.991443 0.130539 0
    outer loop
      vertex 1.93185 -15.4824 12
      vertex 2 -16 4
      vertex 1.93185 -15.4824 4
    endloop
  endfacet
  facet normal 0.923891 0.382656 0
    outer loop
      vertex 1.93185 -15.4824 12
      vertex 1.93185 -15.4824 4
      vertex 1.73205 -15 12
    endloop
  endfacet
  facet normal 0.923891 0.382656 0
    outer loop
      vertex 1.73205 -15 12
      vertex 1.93185 -15.4824 4
      vertex 1.73205 -15 4
    endloop
  endfacet
  facet normal 0.793341 0.608777 0
    outer loop
      vertex 1.73205 -15 12
      vertex 1.73205 -15 4
      vertex 1.41421 -14.5858 12
    endloop
  endfacet
  facet normal 0.793341 0.608777 0
    outer loop
      vertex 1.41421 -14.5858 12
      vertex 1.73205 -15 4
      vertex 1.41421 -14.5858 4
    endloop
  endfacet
  facet normal 0.60884 0.793293 0
    outer loop
      vertex 1.41421 -14.5858 12
      vertex 1.41421 -14.5858 4
      vertex 1 -14.2679 12
    endloop
  endfacet
  facet normal 0.60884 0.793293 0
    outer loop
      vertex 1 -14.2679 12
      vertex 1.41421 -14.5858 4
      vertex 1 -14.2679 4
    endloop
  endfacet
  facet normal 0.382682 0.92388 0
    outer loop
      vertex 1 -14.2679 12
      vertex 1 -14.2679 4
      vertex 0.517638 -14.0681 12
    endloop
  endfacet
  facet normal 0.382682 0.92388 0
    outer loop
      vertex 0.517638 -14.0681 12
      vertex 1 -14.2679 4
      vertex 0.517638 -14.0681 4
    endloop
  endfacet
  facet normal 0.130435 0.991457 0
    outer loop
      vertex 0.517638 -14.0681 12
      vertex 0.517638 -14.0681 4
      vertex 1.22465e-16 -14 12
    endloop
  endfacet
  facet normal 0.130435 0.991457 0
    outer loop
      vertex 1.22465e-16 -14 12
      vertex 0.517638 -14.0681 4
      vertex 1.22465e-16 -14 4
    endloop
  endfacet
  facet normal -0.130435 0.991457 0
    outer loop
      vertex 1.22465e-16 -14 12
      vertex 1.22465e-16 -14 4
      vertex -0.517638 -14.0681 12
    endloop
  endfacet
  facet normal -0.130435 0.991457 0
    outer loop
      vertex -0.517638 -14.0681 12
      vertex 1.22465e-16 -14 4
      vertex -0.517638 -14.0681 4
    endloop
  endfacet
  facet normal -0.382682 0.92388 0
    outer loop
      vertex -0.517638 -14.0681 12
      vertex -0.517638 -14.0681 4
      vertex -1 -14.2679 12
    endloop
  endfacet
  facet normal -0.382682 0.92388 0
    outer loop
      vertex -1 -14.2679 12
      vertex -0.517638 -14.0681 4
      vertex -1 -14.2679 4
    endloop
  endfacet
  facet normal -0.60884 0.793293 0
    outer loop
      vertex -1 -14.2679 12
      vertex -1 -14.2679 4
      vertex -1.41421 -14.5858 12
    endloop
  endfacet
  facet normal -0.60884 0.793293 0
    outer loop
      vertex -1.41421 -14.5858 12
      vertex -1 -14.2679 4
      vertex -1.41421 -14.5858 4
    endloop
  endfacet
  facet normal -0.793341 0.608777 0
    outer loop
      vertex -1.41421 -14.5858 12
      vertex -1.41421 -14.5858 4
      vertex -1.73205 -15 12
    endloop
  endfacet
  facet normal -0.793341 0.608777 0
    outer loop
      vertex -1.73205 -15 12
      vertex -1.41421 -14.5858 4
      vertex -1.73205 -15 4
    endloop
  endfacet
  facet normal -0.923891 0.382656 0
    outer loop
      vertex -1.73205 -15 12
      vertex -1.73205 -15 4
      vertex -1.93185 -15.4824 12
    endloop
  endfacet
  facet normal -0.923891 0.382656 0
    outer loop
      vertex -1.93185 -15.4824 12
      vertex -1.73205 -15 4
      vertex -1.93185 -15.4824 4
    endloop
  endfacet
  facet normal -0.991443 0.130539 0
    outer loop
      vertex -1.93185 -15.4824 12
      vertex -1.93185 -15.4824 4
      vertex -2 -16 12
    endloop
  endfacet
  facet normal -0.991443 0.130539 0
    outer loop
      vertex -2 -16 12
      vertex -1.93185 -15.4824 4
      vertex -2 -16 4
    endloop
  endfacet
  facet normal 1 0 0
    outer loop
      vertex 2 -32 4
      vertex 2 -16 4
      vertex 2 -32 12
    endloop
  endfacet
  facet normal 1 -0 0
    outer loop
      vertex 2 -32 12
      vertex 2 -16 4
      vertex 2 -16 12
    endloop
  endfacet
  facet normal 0 0 1
    outer loop
      vertex 2 -16 12
      vertex -2 -32 12
      vertex 2 -32 12
    endloop
  endfacet
  facet normal 0 0 1
    outer loop
      vertex 2 -32 12
      vertex -2 -32 12
      vertex -1.22465e-16 -34 12
    endloop
  endfacet
  facet normal 0 0 1
    outer loop
      vertex 2 -32 12
      vertex -1.22465e-16 -34 12
      vertex 0.517638 -33.9319 12
    endloop
  endfacet
  facet normal 0 0 1
    outer loop
      vertex 1.93185 -15.4824 12
      vertex 1.73205 -15 12
      vertex 2 -16 12
    endloop
  endfacet
  facet normal 0 0 1
    outer loop
      vertex 2 -16 12
      vertex 1.73205 -15 12
      vertex 1.41421 -14.5858 12
    endloop
  endfacet
  facet normal 0 0 1
    outer loop
      vertex 2 -16 12
      vertex 1.41421 -14.5858 12
      vertex 1 -14.2679 12
    endloop
  endfacet
  facet normal 0 0 1
    outer loop
      vertex 1 -14.2679 12
      vertex 0.517638 -14.0681 12
      vertex 2 -16 12
    endloop
  endfacet
  facet normal 0 0 1
    outer loop
      vertex 2 -16 12
      vertex 0.517638 -14.0681 12
      vertex 1.22465e-16 -14 12
    endloop
  endfacet
  facet normal 0 0 1
    outer loop
      vertex 2 -16 12
      vertex 1.22465e-16 -14 12
      vertex -2 -16 12
    endloop
  endfacet
  facet normal 0 0 1
    outer loop
      vertex -2 -16 12
      vertex 1.22465e-16 -14 12
      vertex -0.517638 -14.0681 12
    endloop
  endfacet
  facet normal 0 0 1
    outer loop
      vertex -2 -16 12
      vertex -0.517638 -14.0681 12
      vertex -1 -14.2679 12
    endloop
  endfacet
  facet normal 0 0 1
    outer loop
      vertex -1 -14.2679 12
      vertex -1.41421 -14.5858 12
      vertex -2 -16 12
    endloop
  endfacet
  facet normal 0 0 1
    outer loop
      vertex -2 -16 12
      vertex -1.41421 -14.5858 12
      vertex -1.73205 -15 12
    endloop
  endfacet
  facet normal 0 0 1
    outer loop
      vertex -2 -16 12
      vertex -1.73205 -15 12
      vertex -1.93185 -15.4824 12
    endloop
  endfacet
  facet normal -0 0 1
    outer loop
      vertex -2 -16 12
      vertex -2 -32 12
      vertex 2 -16 12
    endloop
  endfacet
  facet normal -0 -0 1
    outer loop
      vertex -1.93185 -32.5176 12
      vertex -1.73205 -33 12
      vertex -2 -32 12
    endloop
  endfacet
  facet normal 0 0 1
    outer loop
      vertex -2 -32 12
      vertex -1.73205 -33 12
      vertex -1.41421 -33.4142 12
    endloop
  endfacet
  facet normal 0 0 1
    outer loop
      vertex -2 -32 12
      vertex -1.41421 -33.4142 12
      vertex -1 -33.7321 12
    endloop
  endfacet
  facet normal -0 -0 1
    outer loop
      vertex -1 -33.7321 12
      vertex -0.517638 -33.9319 12
      vertex -2 -32 12
    endloop
  endfacet
  facet normal 0 0 1
    outer loop
      vertex -2 -32 12
      vertex -0.517638 -33.9319 12
      vertex -1.22465e-16 -34 12
    endloop
  endfacet
  facet normal 0 0 1
    outer loop
      vertex 0.517638 -33.9319 12
      vertex 1 -33.7321 12
      vertex 2 -32 12
    endloop
  endfacet
  facet normal 0 0 1
    outer loop
      vertex 2 -32 12
      vertex 1 -33.7321 12
      vertex 1.41421 -33.4142 12
    endloop
  endfacet
  facet normal 0 0 1
    outer loop
      vertex 2 -32 12
      vertex 1.41421 -33.4142 12
      vertex 1.73205 -33 12
    endloop
  endfacet
  facet normal 0 0 1
    outer loop
      vertex 1.73205 -33 12
      vertex 1.93185 -32.5176 12
      vertex 2 -32 12
    endloop
  endfacet
  facet normal -0.991443 -0.130539 -0
    outer loop
      vertex -2 16 12
      vertex -2 16 4
      vertex -1.93185 15.4824 12
    endloop
  endfacet
  facet normal -0.991443 -0.130539 -0
    outer loop
      vertex -1.93185 15.4824 12
      vertex -2 16 4
      vertex -1.93185 15.4824 4
    endloop
  endfacet
  facet normal -0.923891 -0.382656 -0
    outer loop
      vertex -1.93185 15.4824 12
      vertex -1.93185 15.4824 4
      vertex -1.73205 15 12
    endloop
  endfacet
  facet normal -0.923891 -0.382656 -0
    outer loop
      vertex -1.73205 15 12
      vertex -1.93185 15.4824 4
      vertex -1.73205 15 4
    endloop
  endfacet
  facet normal -0.793341 -0.608777 -0
    outer loop
      vertex -1.73205 15 12
      vertex -1.73205 15 4
      vertex -1.41421 14.5858 12
    endloop
  endfacet
  facet normal -0.793341 -0.608777 -0
    outer loop
      vertex -1.41421 14.5858 12
      vertex -1.73205 15 4
      vertex -1.41421 14.5858 4
    endloop
  endfacet
  facet normal -0.60884 -0.793293 -0
    outer loop
      vertex -1.41421 14.5858 12
      vertex -1.41421 14.5858 4
      vertex -1 14.2679 12
    endloop
  endfacet
  facet normal -0.60884 -0.793293 -0
    outer loop
      vertex -1 14.2679 12
      vertex -1.41421 14.5858 4
      vertex -1 14.2679 4
    endloop
  endfacet
  facet normal -0.382682 -0.92388 -0
    outer loop
      vertex -1 14.2679 12
      vertex -1 14.2679 4
      vertex -0.517638 14.0681 12
    endloop
  endfacet
  facet normal -0.382682 -0.92388 -0
    outer loop
      vertex -0.517638 14.0681 12
      vertex -1 14.2679 4
      vertex -0.517638 14.0681 4
    endloop
  endfacet
  facet normal -0.130435 -0.991457 -0
    outer loop
      vertex -0.517638 14.0681 12
      vertex -0.517638 14.0681 4
      vertex -1.22465e-16 14 12
    endloop
  endfacet
  facet normal -0.130435 -0.991457 -0
    outer loop
      vertex -1.22465e-16 14 12
      vertex -0.517638 14.0681 4
      vertex -1.22465e-16 14 4
    endloop
  endfacet
  facet normal 0.130435 -0.991457 0
    outer loop
      vertex -1.22465e-16 14 12
      vertex -1.22465e-16 14 4
      vertex 0.517638 14.0681 12
    endloop
  endfacet
  facet normal 0.130435 -0.991457 0
    outer loop
      vertex 0.517638 14.0681 12
      vertex -1.22465e-16 14 4
      vertex 0.517638 14.0681 4
    endloop
  endfacet
  facet normal 0.382682 -0.92388 0
    outer loop
      vertex 0.517638 14.0681 12
      vertex 0.517638 14.0681 4
      vertex 1 14.2679 12
    endloop
  endfacet
  facet normal 0.382682 -0.92388 0
    outer loop
      vertex 1 14.2679 12
      vertex 0.517638 14.0681 4
      vertex 1 14.2679 4
    endloop
  endfacet
  facet normal 0.60884 -0.793293 0
    outer loop
      vertex 1 14.2679 12
      vertex 1 14.2679 4
      vertex 1.41421 14.5858 12
    endloop
  endfacet
  facet normal 0.60884 -0.793293 0
    outer loop
      vertex 1.41421 14.5858 12
      vertex 1 14.2679 4
      vertex 1.41421 14.5858 4
    endloop
  endfacet
  facet normal 0.793341 -0.608777 0
    outer loop
      vertex 1.41421 14.5858 12
      vertex 1.41421 14.5858 4
      vertex 1.73205 15 12
    endloop
  endfacet
  facet normal 0.793341 -0.608777 0
    outer loop
      vertex 1.73205 15 12
      vertex 1.41421 14.5858 4
      vertex 1.73205 15 4
    endloop
  endfacet
  facet normal 0.923891 -0.382656 0
    outer loop
      vertex 1.73205 15 12
      vertex 1.73205 15 4
      vertex 1.93185 15.4824 12
    endloop
  endfacet
  facet normal 0.923891 -0.382656 0
    outer loop
      vertex 1.93185 15.4824 12
      vertex 1.73205 15 4
      vertex 1.93185 15.4824 4
    endloop
  endfacet
  facet normal 0.991443 -0.130539 0
    outer loop
      vertex 1.93185 15.4824 12
      vertex 1.93185 15.4824 4
      vertex 2 16 12
    endloop
  endfacet
  facet normal 0.991443 -0.130539 0
    outer loop
      vertex 2 16 12
      vertex 1.93185 15.4824 4
      vertex 2 16 4
    endloop
  endfacet
  facet normal -1 0 0
    outer loop
      vertex -2 32 4
      vertex -2 16 4
      vertex -2 32 12
    endloop
  endfacet
  facet normal -1 -0 0
    outer loop
      vertex -2 32 12
      vertex -2 16 4
      vertex -2 16 12
    endloop
  endfacet
  facet normal 0.991443 0.130539 0
    outer loop
      vertex 2 32 12
      vertex 2 32 4
      vertex 1.93185 32.5176 12
    endloop
  endfacet
  facet normal 0.991443 0.130539 0
    outer loop
      vertex 1.93185 32.5176 12
      vertex 2 32 4
      vertex 1.93185 32.5176 4
    endloop
  endfacet
  facet normal 0.923891 0.382656 0
    outer loop
      vertex 1.93185 32.5176 12
      vertex 1.93185 32.5176 4
      vertex 1.73205 33 12
    endloop
  endfacet
  facet normal 0.923891 0.382656 0
    outer loop
      vertex 1.73205 33 12
      vertex 1.93185 32.5176 4
      vertex 1.73205 33 4
    endloop
  endfacet
  facet normal 0.793341 0.608777 0
    outer loop
      vertex 1.73205 33 12
      vertex 1.73205 33 4
      vertex 1.41421 33.4142 12
    endloop
  endfacet
  facet normal 0.793341 0.608777 0
    outer loop
      vertex 1.41421 33.4142 12
      vertex 1.73205 33 4
      vertex 1.41421 33.4142 4
    endloop
  endfacet
  facet normal 0.60884 0.793293 0
    outer loop
      vertex 1.41421 33.4142 12
      vertex 1.41421 33.4142 4
      vertex 1 33.7321 12
    endloop
  endfacet
  facet normal 0.60884 0.793293 0
    outer loop
      vertex 1 33.7321 12
      vertex 1.41421 33.4142 4
      vertex 1 33.7321 4
    endloop
  endfacet
  facet normal 0.382682 0.92388 0
    outer loop
      vertex 1 33.7321 12
      vertex 1 33.7321 4
      vertex 0.517638 33.9319 12
    endloop
  endfacet
  facet normal 0.382682 0.92388 0
    outer loop
      vertex 0.517638 33.9319 12
      vertex 1 33.7321 4
      vertex 0.517638 33.9319 4
    endloop
  endfacet
  facet normal 0.130435 0.991457 0
    outer loop
      vertex 0.517638 33.9319 12
      vertex 0.517638 33.9319 4
      vertex 1.22465e-16 34 12
    endloop
  endfacet
  facet normal 0.130435 0.991457 0
    outer loop
      vertex 1.22465e-16 34 12
      vertex 0.517638 33.9319 4
      vertex 1.22465e-16 34 4
    endloop
  endfacet
  facet normal -0.130435 0.991457 0
    outer loop
      vertex 1.22465e-16 34 12
      vertex 1.22465e-16 34 4
      vertex -0.517638 33.9319 12
    endloop
  endfacet
  facet normal -0.130435 0.991457 0
    outer loop
      vertex -0.517638 33.9319 12
      vertex 1.22465e-16 34 4
      vertex -0.517638 33.9319 4
    endloop
  endfacet
  facet normal -0.382682 0.92388 0
    outer loop
      vertex -0.517638 33.9319 12
      vertex -0.517638 33.9319 4
      vertex -1 33.7321 12
    endloop
  endfacet
  facet normal -0.382682 0.92388 0
    outer loop
      vertex -1 33.7321 12
      vertex -0.517638 33.9319 4
      vertex -1 33.7321 4
    endloop
  endfacet
  facet normal -0.60884 0.793293 0
    outer loop
      vertex -1 33.7321 12
      vertex -1 33.7321 4
      vertex -1.41421 33.4142 12
    endloop
  endfacet
  facet normal -0.60884 0.793293 0
    outer loop
      vertex -1.41421 33.4142 12
      vertex -1 33.7321 4
      vertex -1.41421 33.4142 4
    endloop
  endfacet
  facet normal -0.793341 0.608777 0
    outer loop
      vertex -1.41421 33.4142 12
      vertex -1.41421 33.4142 4
      vertex -1.73205 33 12
    endloop
  endfacet
  facet normal -0.793341 0.608777 0
    outer loop
      vertex -1.73205 33 12
      vertex -1.41421 33.4142 4
      vertex -1.73205 33 4
    endloop
  endfacet
  facet normal -0.923891 0.382656 0
    outer loop
      vertex -1.73205 33 12
      vertex -1.73205 33 4
      vertex -1.93185 32.5176 12
    endloop
  endfacet
  facet normal -0.923891 0.382656 0
    outer loop
      vertex -1.93185 32.5176 12
      vertex -1.73205 33 4
      vertex -1.93185 32.5176 4
    endloop
  endfacet
  facet normal -0.991443 0.130539 0
    outer loop
      vertex -1.93185 32.5176 12
      vertex -1.93185 32.5176 4
      vertex -2 32 12
    endloop
  endfacet
  facet normal -0.991443 0.130539 0
    outer loop
      vertex -2 32 12
      vertex -1.93185 32.5176 4
      vertex -2 32 4
    endloop
  endfacet
  facet normal 1 0 0
    outer loop
      vertex 2 16 4
      vertex 2 32 4
      vertex 2 16 12
    endloop
  endfacet
  facet normal 1 -0 0
    outer loop
      vertex 2 16 12
      vertex 2 32 4
      vertex 2 32 12
    endloop
  endfacet
  facet normal 0 0 1
    outer loop
      vertex 2 32 12
      vertex -2 16 12
      vertex 2 16 12
    endloop
  endfacet
  facet normal 0 0 1
    outer loop
      vertex 2 16 12
      vertex -2 16 12
      vertex -1.22465e-16 14 12
    endloop
  endfacet
  facet normal 0 0 1
    outer loop
      vertex 2 16 12
      vertex -1.22465e-16 14 12
      vertex 0.517638 14.0681 12
    endloop
  endfacet
  facet normal 0 0 1
    outer loop
      vertex 1.93185 32.5176 12
      vertex 1.73205 33 12
      vertex 2 32 12
    endloop
  endfacet
  facet normal 0 0 1
    outer loop
      vertex 2 32 12
      vertex 1.73205 33 12
      vertex 1.41421 33.4142 12
    endloop
  endfacet
  facet normal 0 0 1
    outer loop
      vertex 2 32 12
      vertex 1.41421 33.4142 12
      vertex 1 33.7321 12
    endloop
  endfacet
  facet normal 0 0 1
    outer loop
      vertex 1 33.7321 12
      vertex 0.517638 33.9319 12
      vertex 2 32 12
    endloop
  endfacet
  facet normal 0 0 1
    outer loop
      vertex 2 32 12
      vertex 0.517638 33.9319 12
      vertex 1.22465e-16 34 12
    endloop
  endfacet
  facet normal 0 0 1
    outer loop
      vertex 2 32 12
      vertex 1.22465e-16 34 12
      vertex -2 32 12
    endloop
  endfacet
  facet normal 0 0 1
    outer loop
      vertex -2 32 12
      vertex 1.22465e-16 34 12
      vertex -0.517638 33.9319 12
    endloop
  endfacet
  facet normal 0 0 1
    outer loop
      vertex -2 32 12
      vertex -0.517638 33.9319 12
      vertex -1 33.7321 12
    endloop
  endfacet
  facet normal 0 0 1
    outer loop
      vertex -1 33.7321 12
      vertex -1.41421 33.4142 12
      vertex -2 32 12
    endloop
  endfacet
  facet normal 0 0 1
    outer loop
      vertex -2 32 12
      vertex -1.41421 33.4142 12
      vertex -1.73205 33 12
    endloop
  endfacet
  facet normal 0 0 1
    outer loop
      vertex -2 32 12
      vertex -1.73205 33 12
      vertex -1.93185 32.5176 12
    endloop
  endfacet
  facet normal -0 0 1
    outer loop
      vertex -2 32 12
      vertex -2 16 12
      vertex 2 32 12
    endloop
  endfacet
  facet normal -0 -0 1
    outer loop
      vertex -1.93185 15.4824 12
      vertex -1.73205 15 12
      vertex -2 16 12
    endloop
  endfacet
  facet normal 0 0 1
    outer loop
      vertex -2 16 12
      vertex -1.73205 15 12
      vertex -1.41421 14.5858 12
    endloop
  endfacet
  facet normal 0 0 1
    outer loop
      vertex -2 16 12
      vertex -1.41421 14.5858 12
      vertex -1 14.2679 12
    endloop
  endfacet
  facet normal -0 -0 1
    outer loop
      vertex -1 14.2679 12
      vertex -0.517638 14.0681 12
      vertex -2 16 12
    endloop
  endfacet
  facet normal 0 0 1
    outer loop
      vertex -2 16 12
      vertex -0.517638 14.0681 12
      vertex -1.22465e-16 14 12
    endloop
  endfacet
  facet normal 0 0 1
    outer loop
      vertex 0.517638 14.0681 12
      vertex 1 14.2679 12
      vertex 2 16 12
    endloop
  endfacet
  facet normal 0 0 1
    outer loop
      vertex 2 16 12
      vertex 1 14.2679 12
      vertex 1.41421 14.5858 12
    endloop
  endfacet
  facet normal 0 0 1
    outer loop
      vertex 2 16 12
      vertex 1.41421 14.5858 12
      vertex 1.73205 15 12
    endloop
  endfacet
  facet normal 0 0 1
    outer loop
      vertex 1.73205 15 12
      vertex 1.93185 15.4824 12
      vertex 2 16 12
    endloop
  endfacet
  facet normal 0 1 -0
    outer loop
      vertex 16.8 40 1.6
      vertex -16.8 40 1.6
      vertex 16.8 40 4
    endloop
  endfacet
  facet normal 0 1 0
    outer loop
      vertex 16.8 40 4
      vertex -16.8 40 1.6
      vertex -16.8 40 4
    endloop
  endfacet
  facet normal -1 0 0
    outer loop
      vertex -16.8 39.9455 1.18589
      vertex -16.8 -39.9455 1.18589
      vertex -16.8 40 1.6
    endloop
  endfacet
  facet normal -1 -0 0
    outer loop
      vertex -16.8 40 1.6
      vertex -16.8 -39.9455 1.18589
      vertex -16.8 -40 1.6
    endloop
  endfacet
  facet normal -1 0 0
    outer loop
      vertex -16.8 40 1.6
      vertex -16.8 -40 1.6
      vertex -16.8 40 4
    endloop
  endfacet
  facet normal -1 -0 0
    outer loop
      vertex -16.8 40 4
      vertex -16.8 -40 1.6
      vertex -16.8 -40 4
    endloop
  endfacet
  facet normal -1 0 0
    outer loop
      vertex -16.8 -39.9455 1.18589
      vertex -16.8 39.9455 1.18589
      vertex -16.8 -39.7856 0.8
    endloop
  endfacet
  facet normal -1 0 0
    outer loop
      vertex -16.8 -39.7856 0.8
      vertex -16.8 39.9455 1.18589
      vertex -16.8 39.7856 0.8
    endloop
  endfacet
  facet normal -1 0 0
    outer loop
      vertex -16.8 -39.7856 0.8
      vertex -16.8 39.7856 0.8
      vertex -16.8 -38.4 0
    endloop
  endfacet
  facet normal -1 0 0
    outer loop
      vertex -16.8 -38.4 0
      vertex -16.8 39.7856 0.8
      vertex -16.8 38.4 0
    endloop
  endfacet
  facet normal -1 0 0
    outer loop
      vertex -16.8 38.4 0
      vertex -16.8 39.7856 0.8
      vertex -16.8 39.5314 0.468629
    endloop
  endfacet
  facet normal -1 0 0
    outer loop
      vertex -16.8 38.4 0
      vertex -16.8 39.5314 0.468629
      vertex -16.8 39.2 0.214359
    endloop
  endfacet
  facet normal -1 0 0
    outer loop
      vertex -16.8 39.2 0.214359
      vertex -16.8 38.8141 0.0545187
      vertex -16.8 38.4 0
    endloop
  endfacet
  facet normal -1 0 0
    outer loop
      vertex -16.8 -38.8141 0.0545187
      vertex -16.8 -39.2 0.214359
      vertex -16.8 -38.4 0
    endloop
  endfacet
  facet normal -1 0 0
    outer loop
      vertex -16.8 -38.4 0
      vertex -16.8 -39.2 0.214359
      vertex -16.8 -39.5314 0.468629
    endloop
  endfacet
  facet normal -1 0 0
    outer loop
      vertex -16.8 -38.4 0
      vertex -16.8 -39.5314 0.468629
      vertex -16.8 -39.7856 0.8
    endloop
  endfacet
  facet normal 0 0 1
    outer loop
      vertex 11.8637 -30.9647 4
      vertex 12 -32 4
      vertex 16.8 -40 4
    endloop
  endfacet
  facet normal 0 0 1
    outer loop
      vertex 16.8 -40 4
      vertex 12 -32 4
      vertex 11.8637 -33.0353 4
    endloop
  endfacet
  facet normal 0 0 1
    outer loop
      vertex 16.8 -40 4
      vertex 11.8637 -33.0353 4
      vertex 11.4641 -34 4
    endloop
  endfacet
  facet normal 0 0 1
    outer loop
      vertex 11.4641 -34 4
      vertex 10.8284 -34.8284 4
      vertex 16.8 -40 4
    endloop
  endfacet
  facet normal 0 0 1
    outer loop
      vertex 16.8 -40 4
      vertex 10.8284 -34.8284 4
      vertex 10 -35.4641 4
    endloop
  endfacet
  facet normal 0 0 1
    outer loop
      vertex 16.8 -40 4
      vertex 10 -35.4641 4
      vertex 9.03528 -35.8637 4
    endloop
  endfacet
  facet normal 0 0 1
    outer loop
      vertex 9.03528 -35.8637 4
      vertex 8 -36 4
      vertex 16.8 -40 4
    endloop
  endfacet
  facet normal 0 0 1
    outer loop
      vertex 16.8 -40 4
      vertex 8 -36 4
      vertex 6.96472 -35.8637 4
    endloop
  endfacet
  facet normal 0 0 1
    outer loop
      vertex 16.8 -40 4
      vertex 6.96472 -35.8637 4
      vertex -16.8 -40 4
    endloop
  endfacet
  facet normal 0 0 1
    outer loop
      vertex -16.8 -40 4
      vertex 6.96472 -35.8637 4
      vertex 6 -35.4641 4
    endloop
  endfacet
  facet normal 0 0 1
    outer loop
      vertex -16.8 -40 4
      vertex 6 -35.4641 4
      vertex -1.22465e-16 -34 4
    endloop
  endfacet
  facet normal -0 0 1
    outer loop
      vertex -1.22465e-16 -34 4
      vertex 6 -35.4641 4
      vertex 0.517638 -33.9319 4
    endloop
  endfacet
  facet normal 0 0 1
    outer loop
      vertex 0.517638 -33.9319 4
      vertex 6 -35.4641 4
      vertex 5.17157 -34.8284 4
    endloop
  endfacet
  facet normal -0 0 1
    outer loop
      vertex 0.517638 -33.9319 4
      vertex 5.17157 -34.8284 4
      vertex 1 -33.7321 4
    endloop
  endfacet
  facet normal -0 0 1
    outer loop
      vertex 1 -33.7321 4
      vertex 5.17157 -34.8284 4
      vertex 1.41421 -33.4142 4
    endloop
  endfacet
  facet normal 0 0 1
    outer loop
      vertex 1.41421 -33.4142 4
      vertex 5.17157 -34.8284 4
      vertex 4.5359 -34 4
    endloop
  endfacet
  facet normal -0 0 1
    outer loop
      vertex 1.41421 -33.4142 4
      vertex 4.5359 -34 4
      vertex 1.73205 -33 4
    endloop
  endfacet
  facet normal 0 0 1
    outer loop
      vertex 1.73205 -33 4
      vertex 4.5359 -34 4
      vertex 4.1363 -33.0353 4
    endloop
  endfacet
  facet normal -0 0 1
    outer loop
      vertex 1.73205 -33 4
      vertex 4.1363 -33.0353 4
      vertex 1.93185 -32.5176 4
    endloop
  endfacet
  facet normal -0 0 1
    outer loop
      vertex 1.93185 -32.5176 4
      vertex 4.1363 -33.0353 4
      vertex 4 -32 4
    endloop
  endfacet
  facet normal 0 0 1
    outer loop
      vertex 1.93185 -32.5176 4
      vertex 4 -32 4
      vertex 2 -32 4
    endloop
  endfacet
  facet normal 0 0 1
    outer loop
      vertex 2 -32 4
      vertex 4 -32 4
      vertex 4.1363 -30.9647 4
    endloop
  endfacet
  facet normal 0 0 1
    outer loop
      vertex 2 -32 4
      vertex 4.1363 -30.9647 4
      vertex 4.5359 -30 4
    endloop
  endfacet
  facet normal 0 0 1
    outer loop
      vertex 2 -32 4
      vertex 4.5359 -30 4
      vertex 2 -16 4
    endloop
  endfacet
  facet normal 0 0 1
    outer loop
      vertex 2 -16 4
      vertex 4.5359 -30 4
      vertex 5.17157 -29.1716 4
    endloop
  endfacet
  facet normal 0 0 1
    outer loop
      vertex 2 -16 4
      vertex 5.17157 -29.1716 4
      vertex 6 -28.5359 4
    endloop
  endfacet
  facet normal 0 -0 1
    outer loop
      vertex 6 -28.5359 4
      vertex 6.96472 -28.1363 4
      vertex 2 -16 4
    endloop
  endfacet
  facet normal 0 0 1
    outer loop
      vertex 2 -16 4
      vertex 6.96472 -28.1363 4
      vertex 8 -28 4
    endloop
  endfacet
  facet normal 0 0 1
    outer loop
      vertex 2 -16 4
      vertex 8 -28 4
      vertex 9.03528 -28.1363 4
    endloop
  endfacet
  facet normal -0 -0 1
    outer loop
      vertex 2 -16 4
      vertex 9.03528 -28.1363 4
      vertex 1.93185 -15.4824 4
    endloop
  endfacet
  facet normal 0 0 1
    outer loop
      vertex 1.93185 -15.4824 4
      vertex 9.03528 -28.1363 4
      vertex 10 -28.5359 4
    endloop
  endfacet
  facet normal -0 0 1
    outer loop
      vertex 1.93185 -15.4824 4
      vertex 10 -28.5359 4
      vertex 10 26.9359 4
    endloop
  endfacet
  facet normal -0 0 1
    outer loop
      vertex 10 26.9359 4
      vertex 10 -28.5359 4
      vertex 10.8284 27.5716 4
    endloop
  endfacet
  facet normal 0 0 1
    outer loop
      vertex 10.8284 27.5716 4
      vertex 10 -28.5359 4
      vertex 10.8284 -29.1716 4
    endloop
  endfacet
  facet normal -0 0 1
    outer loop
      vertex 10.8284 27.5716 4
      vertex 10.8284 -29.1716 4
      vertex 11.4641 28.4 4
    endloop
  endfacet
  facet normal 0 0 1
    outer loop
      vertex 11.4641 28.4 4
      vertex 10.8284 -29.1716 4
      vertex 11.4641 -30 4
    endloop
  endfacet
  facet normal -0 0 1
    outer loop
      vertex 11.4641 28.4 4
      vertex 11.4641 -30 4
      vertex 11.8637 29.3647 4
    endloop
  endfacet
  facet normal 0 0 1
    outer loop
      vertex 11.8637 29.3647 4
      vertex 11.4641 -30 4
      vertex 11.8637 -30.9647 4
    endloop
  endfacet
  facet normal 0 0 1
    outer loop
      vertex 11.8637 29.3647 4
      vertex 11.8637 -30.9647 4
      vertex 16.8 -40 4
    endloop
  endfacet
  facet normal -0 0 1
    outer loop
      vertex 11.8637 31.4353 4
      vertex 12 30.4 4
      vertex 16.8 40 4
    endloop
  endfacet
  facet normal 0 0 1
    outer loop
      vertex 16.8 40 4
      vertex 12 30.4 4
      vertex 11.8637 29.3647 4
    endloop
  endfacet
  facet normal 0 0 1
    outer loop
      vertex 16.8 40 4
      vertex 11.8637 29.3647 4
      vertex 16.8 -40 4
    endloop
  endfacet
  facet normal 0 0 1
    outer loop
      vertex 10 26.9359 4
      vertex 9.03528 26.5363 4
      vertex 1.93185 -15.4824 4
    endloop
  endfacet
  facet normal 0 0 1
    outer loop
      vertex 1.93185 -15.4824 4
      vertex 9.03528 26.5363 4
      vertex 1.93185 15.4824 4
    endloop
  endfacet
  facet normal 0 -0 1
    outer loop
      vertex 1.93185 -15.4824 4
      vertex 1.93185 15.4824 4
      vertex 1.73205 -15 4
    endloop
  endfacet
  facet normal 0 0 1
    outer loop
      vertex 1.73205 -15 4
      vertex 1.93185 15.4824 4
      vertex 1.73205 15 4
    endloop
  endfacet
  facet normal 0 -0 1
    outer loop
      vertex 1.73205 -15 4
      vertex 1.73205 15 4
      vertex 1.41421 -14.5858 4
    endloop
  endfacet
  facet normal 0 0 1
    outer loop
      vertex 1.41421 -14.5858 4
      vertex 1.73205 15 4
      vertex 1.41421 14.5858 4
    endloop
  endfacet
  facet normal 0 -0 1
    outer loop
      vertex 1.41421 -14.5858 4
      vertex 1.41421 14.5858 4
      vertex 1 -14.2679 4
    endloop
  endfacet
  facet normal 0 0 1
    outer loop
      vertex 1 -14.2679 4
      vertex 1.41421 14.5858 4
      vertex 1 14.2679 4
    endloop
  endfacet
  facet normal 0 -0 1
    outer loop
      vertex 1 -14.2679 4
      vertex 1 14.2679 4
      vertex 0.517638 -14.0681 4
    endloop
  endfacet
  facet normal 0 0 1
    outer loop
      vertex 0.517638 -14.0681 4
      vertex 1 14.2679 4
      vertex 0.517638 14.0681 4
    endloop
  endfacet
  facet normal 0 -0 1
    outer loop
      vertex 0.517638 -14.0681 4
      vertex 0.517638 14.0681 4
      vertex 1.22465e-16 -14 4
    endloop
  endfacet
  facet normal 0 -0 1
    outer loop
      vertex 1.22465e-16 -14 4
      vertex 0.517638 14.0681 4
      vertex -1.22465e-16 14 4
    endloop
  endfacet
  facet normal 0 0 1
    outer loop
      vertex 1.22465e-16 -14 4
      vertex -1.22465e-16 14 4
      vertex -0.517638 -14.0681 4
    endloop
  endfacet
  facet normal 0 0 1
    outer loop
      vertex -0.517638 -14.0681 4
      vertex -1.22465e-16 14 4
      vertex -0.517638 14.0681 4
    endloop
  endfacet
  facet normal 0 -0 1
    outer loop
      vertex -0.517638 -14.0681 4
      vertex -0.517638 14.0681 4
      vertex -1 -14.2679 4
    endloop
  endfacet
  facet normal 0 0 1
    outer loop
      vertex -1 -14.2679 4
      vertex -0.517638 14.0681 4
      vertex -1 14.2679 4
    endloop
  endfacet
  facet normal 0 -0 1
    outer loop
      vertex -1 -14.2679 4
      vertex -1 14.2679 4
      vertex -1.41421 -14.5858 4
    endloop
  endfacet
  facet normal 0 0 1
    outer loop
      vertex -1.41421 -14.5858 4
      vertex -1 14.2679 4
      vertex -1.41421 14.5858 4
    endloop
  endfacet
  facet normal 0 -0 1
    outer loop
      vertex -1.41421 -14.5858 4
      vertex -1.41421 14.5858 4
      vertex -1.73205 -15 4
    endloop
  endfacet
  facet normal 0 0 1
    outer loop
      vertex -1.73205 -15 4
      vertex -1.41421 14.5858 4
      vertex -1.73205 15 4
    endloop
  endfacet
  facet normal 0 -0 1
    outer loop
      vertex -1.73205 -15 4
      vertex -1.73205 15 4
      vertex -1.93185 -15.4824 4
    endloop
  endfacet
  facet normal 0 0 1
    outer loop
      vertex -1.93185 -15.4824 4
      vertex -1.73205 15 4
      vertex -1.93185 15.4824 4
    endloop
  endfacet
  facet normal 0 -0 1
    outer loop
      vertex -1.93185 -15.4824 4
      vertex -1.93185 15.4824 4
      vertex -16.8 -40 4
    endloop
  endfacet
  facet normal 0 0 1
    outer loop
      vertex -16.8 -40 4
      vertex -1.93185 15.4824 4
      vertex -16.8 40 4
    endloop
  endfacet
  facet normal 0 0 1
    outer loop
      vertex -16.8 40 4
      vertex -1.93185 15.4824 4
      vertex -2 16 4
    endloop
  endfacet
  facet normal 0 0 1
    outer loop
      vertex -16.8 40 4
      vertex -2 16 4
      vertex -2 32 4
    endloop
  endfacet
  facet normal 0 0 1
    outer loop
      vertex 9.03528 26.5363 4
      vertex 8 26.4 4
      vertex 1.93185 15.4824 4
    endloop
  endfacet
  facet normal 0 0 1
    outer loop
      vertex 1.93185 15.4824 4
      vertex 8 26.4 4
      vertex 2 16 4
    endloop
  endfacet
  facet normal 0 0 1
    outer loop
      vertex 2 16 4
      vertex 8 26.4 4
      vertex 6.96472 26.5363 4
    endloop
  endfacet
  facet normal 0 0 1
    outer loop
      vertex 2 16 4
      vertex 6.96472 26.5363 4
      vertex 6 26.9359 4
    endloop
  endfacet
  facet normal 0 0 1
    outer loop
      vertex 6 26.9359 4
      vertex 5.17157 27.5716 4
      vertex 2 16 4
    endloop
  endfacet
  facet normal 0 0 1
    outer loop
      vertex 2 16 4
      vertex 5.17157 27.5716 4
      vertex 4.5359 28.4 4
    endloop
  endfacet
  facet normal 0 0 1
    outer loop
      vertex 2 16 4
      vertex 4.5359 28.4 4
      vertex 4.1363 29.3647 4
    endloop
  endfacet
  facet normal 0 0 1
    outer loop
      vertex 2 16 4
      vertex 4.1363 29.3647 4
      vertex 2 32 4
    endloop
  endfacet
  facet normal 0 0 1
    outer loop
      vertex 2 32 4
      vertex 4.1363 29.3647 4
      vertex 4 30.4 4
    endloop
  endfacet
  facet normal 0 0 1
    outer loop
      vertex 2 32 4
      vertex 4 30.4 4
      vertex 4.1363 31.4353 4
    endloop
  endfacet
  facet normal -0 -0 1
    outer loop
      vertex 2 32 4
      vertex 4.1363 31.4353 4
      vertex 1.93185 32.5176 4
    endloop
  endfacet
  facet normal 0 0 1
    outer loop
      vertex 1.93185 32.5176 4
      vertex 4.1363 31.4353 4
      vertex 4.5359 32.4 4
    endloop
  endfacet
  facet normal -0 -0 1
    outer loop
      vertex 1.93185 32.5176 4
      vertex 4.5359 32.4 4
      vertex 1.73205 33 4
    endloop
  endfacet
  facet normal -0 0 1
    outer loop
      vertex 1.73205 33 4
      vertex 4.5359 32.4 4
      vertex 5.17157 33.2284 4
    endloop
  endfacet
  facet normal 0 -0 1
    outer loop
      vertex 1.73205 33 4
      vertex 5.17157 33.2284 4
      vertex 1.41421 33.4142 4
    endloop
  endfacet
  facet normal -0 0 1
    outer loop
      vertex 1.41421 33.4142 4
      vertex 5.17157 33.2284 4
      vertex 6 33.8641 4
    endloop
  endfacet
  facet normal 0 -0 1
    outer loop
      vertex 1.41421 33.4142 4
      vertex 6 33.8641 4
      vertex 1 33.7321 4
    endloop
  endfacet
  facet normal 0 -0 1
    outer loop
      vertex 1 33.7321 4
      vertex 6 33.8641 4
      vertex 0.517638 33.9319 4
    endloop
  endfacet
  facet normal -0 0 1
    outer loop
      vertex 0.517638 33.9319 4
      vertex 6 33.8641 4
      vertex 6.96472 34.2637 4
    endloop
  endfacet
  facet normal 0 0 1
    outer loop
      vertex 0.517638 33.9319 4
      vertex 6.96472 34.2637 4
      vertex 16.8 40 4
    endloop
  endfacet
  facet normal 0 0 1
    outer loop
      vertex 16.8 40 4
      vertex 6.96472 34.2637 4
      vertex 8 34.4 4
    endloop
  endfacet
  facet normal 0 0 1
    outer loop
      vertex 16.8 40 4
      vertex 8 34.4 4
      vertex 9.03528 34.2637 4
    endloop
  endfacet
  facet normal -0 0 1
    outer loop
      vertex 9.03528 34.2637 4
      vertex 10 33.8641 4
      vertex 16.8 40 4
    endloop
  endfacet
  facet normal 0 0 1
    outer loop
      vertex 16.8 40 4
      vertex 10 33.8641 4
      vertex 10.8284 33.2284 4
    endloop
  endfacet
  facet normal 0 0 1
    outer loop
      vertex 16.8 40 4
      vertex 10.8284 33.2284 4
      vertex 11.4641 32.4 4
    endloop
  endfacet
  facet normal -0 0 1
    outer loop
      vertex 11.4641 32.4 4
      vertex 11.8637 31.4353 4
      vertex 16.8 40 4
    endloop
  endfacet
  facet normal 0 0 1
    outer loop
      vertex -1.22465e-16 -34 4
      vertex -0.517638 -33.9319 4
      vertex -16.8 -40 4
    endloop
  endfacet
  facet normal 0 0 1
    outer loop
      vertex -16.8 -40 4
      vertex -0.517638 -33.9319 4
      vertex -1 -33.7321 4
    endloop
  endfacet
  facet normal 0 0 1
    outer loop
      vertex -16.8 -40 4
      vertex -1 -33.7321 4
      vertex -1.41421 -33.4142 4
    endloop
  endfacet
  facet normal 0 0 1
    outer loop
      vertex -1.41421 -33.4142 4
      vertex -1.73205 -33 4
      vertex -16.8 -40 4
    endloop
  endfacet
  facet normal 0 0 1
    outer loop
      vertex -16.8 -40 4
      vertex -1.73205 -33 4
      vertex -1.93185 -32.5176 4
    endloop
  endfacet
  facet normal 0 0 1
    outer loop
      vertex -16.8 -40 4
      vertex -1.93185 -32.5176 4
      vertex -2 -32 4
    endloop
  endfacet
  facet normal 0 -0 1
    outer loop
      vertex -2 -32 4
      vertex -2 -16 4
      vertex -16.8 -40 4
    endloop
  endfacet
  facet normal 0 0 1
    outer loop
      vertex -16.8 -40 4
      vertex -2 -16 4
      vertex -1.93185 -15.4824 4
    endloop
  endfacet
  facet normal 0 -0 1
    outer loop
      vertex -2 32 4
      vertex -1.93185 32.5176 4
      vertex -16.8 40 4
    endloop
  endfacet
  facet normal 0 0 1
    outer loop
      vertex -16.8 40 4
      vertex -1.93185 32.5176 4
      vertex -1.73205 33 4
    endloop
  endfacet
  facet normal 0 0 1
    outer loop
      vertex -16.8 40 4
      vertex -1.73205 33 4
      vertex -1.41421 33.4142 4
    endloop
  endfacet
  facet normal 0 -0 1
    outer loop
      vertex -1.41421 33.4142 4
      vertex -1 33.7321 4
      vertex -16.8 40 4
    endloop
  endfacet
  facet normal 0 0 1
    outer loop
      vertex -16.8 40 4
      vertex -1 33.7321 4
      vertex -0.517638 33.9319 4
    endloop
  endfacet
  facet normal 0 0 1
    outer loop
      vertex -16.8 40 4
      vertex -0.517638 33.9319 4
      vertex 1.22465e-16 34 4
    endloop
  endfacet
  facet normal -0 0 1
    outer loop
      vertex -16.8 40 4
      vertex 1.22465e-16 34 4
      vertex 16.8 40 4
    endloop
  endfacet
  facet normal 0 0 1
    outer loop
      vertex 16.8 40 4
      vertex 1.22465e-16 34 4
      vertex 0.517638 33.9319 4
    endloop
  endfacet
endsolid OpenSCAD_Model
